<?xml version="1.0" encoding="utf-8"?>
<!-- Generator: Adobe Illustrator 18.0.0, SVG Export Plug-In . SVG Version: 6.00 Build 0)  -->
<!DOCTYPE svg PUBLIC "-//W3C//DTD SVG 1.1//EN" "http://www.w3.org/Graphics/SVG/1.1/DTD/svg11.dtd">
<svg version="1.1" id="Capa_1" xmlns="http://www.w3.org/2000/svg" xmlns:xlink="http://www.w3.org/1999/xlink" x="0px" y="0px"
	 viewBox="0 0 1224 792" enable-background="new 0 0 1224 792" xml:space="preserve">
<g>
	<g>
		<polyline fill="#FF4F19" points="382.9,227.1 400.8,227.1 395.8,238.1 400.8,249.2 385.4,249.2 		"/>
	</g>
	<g>
		<path fill="#7E5C62" d="M368.2,266.4L368.2,266.4c-0.7,0-1.2-0.5-1.2-1.2v-36.2c0-0.7,0.5-1.2,1.2-1.2l0,0c0.7,0,1.2,0.5,1.2,1.2
			v36.2C369.4,265.8,368.9,266.4,368.2,266.4z"/>
	</g>
	<g>
		<path fill="#E9001E" d="M385.4,229.5h-16v22.1h14.7c0.7,0,1.2-0.5,1.2-1.2V229.5z"/>
	</g>
	<g>
		<polygon fill="#7E5C62" points="382.9,229.5 385.4,229.5 382.9,227.1 		"/>
	</g>
</g>
</svg>
