<?xml version="1.0" encoding="utf-8"?>
<!-- Generator: Adobe Illustrator 18.0.0, SVG Export Plug-In . SVG Version: 6.00 Build 0)  -->
<!DOCTYPE svg PUBLIC "-//W3C//DTD SVG 1.1//EN" "http://www.w3.org/Graphics/SVG/1.1/DTD/svg11.dtd">
<svg version="1.1"
	 id="svg2" xmlns:sodipodi="http://sodipodi.sourceforge.net/DTD/sodipodi-0.dtd" xmlns:cc="http://creativecommons.org/ns#" xmlns:svg="http://www.w3.org/2000/svg" xmlns:inkscape="http://www.inkscape.org/namespaces/inkscape" xmlns:dc="http://purl.org/dc/elements/1.1/" xmlns:rdf="http://www.w3.org/1999/02/22-rdf-syntax-ns#" inkscape:version="0.48.2 r9819" sodipodi:docname="China_administrative_claimed_included.svg"
	 xmlns="http://www.w3.org/2000/svg" xmlns:xlink="http://www.w3.org/1999/xlink" x="0px" y="0px" viewBox="0 0 1224 792"
	 enable-background="new 0 0 1224 792" xml:space="preserve">
<sodipodi:namedview  borderopacity="1" id="namedview252" showgrid="false" objecttolerance="10" gridtolerance="10" bordercolor="#666666" inkscape:cx="428.5" inkscape:cy="349.5" guidetolerance="10" pagecolor="#ffffff" inkscape:zoom="0.75965665" inkscape:pageopacity="0" inkscape:window-height="721" inkscape:window-maximized="1" inkscape:current-layer="svg2" inkscape:window-width="1366" inkscape:window-x="-4" inkscape:window-y="-4" inkscape:pageshadow="2">
	</sodipodi:namedview>
<polygon id="background" fill-opacity="0" points="0,-57 971,-57 971,735 0,735 "/>
<g id="g16">
	<path id="_40576896" fill="#E5EBFA" stroke="#BABABA" d="M1058.4,164.4c1.1-10,22.4,1.1,21.9-6.7c-1-12.9,1.9-6.1,1.8-13.4
		c-0.1-3.7,5.1-10.4,3.3-15.9c-0.7-2.2,0-4.1-0.9-9.1c-0.7-3.6,1.7-5.2,0.5-8.5c-2.3-5.8,12.1-8.4,2.8-16c-2.8-2.3,1.8-9.7-1.9-10.5
		c-5.9-1.1-12.5,8.6-17.8,10.5c-7.1,2.6-8.4,10.7-9.9,11.2c-13,4.3-13.8,2.6-16.9,3.4c-7.3,1.8-0.2,5.3-9.3-4
		c-4-4.1-0.2-1.4-0.7-6.9c-0.6-6-4.5-0.6-4.3-8.7c0.2-6.5-3.5,3.4-14.6-7.3c-7.5-7.1-5.9,2.4-10.5-1.2c-7.7-6.1-9.5-0.3-18-1.2
		c-7-0.8-4.6-11.7-7-13.1c-4.1-2.8-1.1-2.9-5.8-10.4c-3.4-5.4-4.8-1.9-5.6-8.5c-0.2-1.9-2.5-2.9-2.9-5.1c-1-4.8-6-9.5-6.1-9.9
		c-0.5-1.7,0.5-3.7-0.3-5.3c-0.5-0.9-2.6,1.1-3.3-2.7c-0.1-0.9-5.8-9.9-6-9.9c-5.2-2.8-9.9-9.4-16.2-5.3
		c-4.3,2.8-12.5-10.7-27.5-3.5c-2.8,1.4-7.3-0.3-8.4,1.1c-1.2,1.7-7.1,2.4-10.9,3.2c15.7,9.2-8.6,14.7,3.6,20.2
		c4.6,2,4.5,4.9,7.9-0.8c2.2-3.6,5.3,2.7,7.3,3.6c4.9,2.2-1.7-0.8,1.8,6.8c2.9,6.1,4.5,17,13.9,12c4.2-2.2,6.2-0.1,15.4-3.9
		c7.3-2.8-0.2-14,13.4-1.5c8.7,8,7.8,7.9-0.2,27.4c-3.2,7.7,6.7,18.7-3.3,22.4c-3.7,1.5-0.1,10.4-2.6,13c-1.2,1.4,3.9,7.4,0.8,9
		c-3.5,1.8-2.7-13.5-7-5c-4.1,7.9-18.9,20.1-20.6,24.1c-1.7,4.3,5.8,6.3,7.8,10.8c4.5,9.5,5.4-6.2,8-0.1c0.3,0.9,4-1.4,3.3,2
		c-0.8,4.2-13,1.6-6.1,10.3c0.2,0.3,0.3,0.7,0.6,1c1.9,0.2,4.4,0.5,6.3,0c10.4-2.7,4.3,3.4,9.2,9.7c7.7,10.2,11.7,1.6,15.2,4
		c3.7,2.5,6-3.6,9.2-2.8c0.2,0,5.4,9.9,10.2,5.9c5.2-4.3,13.6-2.2,12.6,2.8c-2.4,11.4,8.5,2.5,8.8,6.3c0.9,11.3,11.4,10.3,10.1,6.5
		c-1.8-5,2.8-12.2,4.8-5.7c2.2,7.1,2.8,6.1,6.2,11.9c4.4,7.6,9.1,3.6,8.3,1.7c-2.2-5.3,3.6-3.5,6-6.9c4.1-5.8,5.2,1.7,7.6-2.5
		s3.9,4.4,6.8,5.4c6.7,2.3,3.4,2.4,10.8,0.8c-0.1-0.2-0.1-0.6-0.2-0.8c-2.5-8.4,2.5-8.5-9.1-27.4
		C1049.9,170.3,1058.1,167,1058.4,164.4L1058.4,164.4z"/>
	<path id="_40576568" fill="#E5EBFA" stroke="#BABABA" d="M1009.5,194.9c1.4,3.9-9.2,4.9-10.1-6.5c-0.3-3.9-11.2,5.1-8.8-6.3
		c1-4.9-7.3-7-12.6-2.8c-4.8,3.9-10.1-5.9-10.2-5.9c-3.2-0.9-5.4,5.3-9.2,2.8c-3.5-2.4-7.5,6.2-15.2-4c-4.8-6.3,1.2-12.5-9.2-9.7
		c-1.9,0.5-4.3,0.2-6.3,0c0,7.1-7.1,2.7-4,7.3c0.8,1.1,1.8,8.6-4.9,2.9c-3.6-3.1,1,4.4-6.6-1c-4.8-3.4-2.3,1-4.9,4.3
		c-1.9,2.4,3.5-1,4.3,3.2c0.6,2.5,6.6,4.4,3.6,9c-1.8,2.8,2.4,2.8,0.3,5.8c-1.6,2.3,4.6,7.7,5.3,12.4c0.5,3.4,4.3-1.4,10.1-5.3
		c5.2-3.5-1.2,0.3,4.2,3.6c2.3,1.4,0,2.6,4,7.4c0,0.1,2.3,5.3,1.2,6.2c-4.3,3.6-0.7,2.6,1.2,4.1c1.1,0.9,0.5-0.1,2.9,0.3
		c1-3.3,1.8-1.7,2.2-1.4c3.7,4,8.5,2.2,9.1,5.9c1.6,10.7,4.9,0.2,5,0.1c3.4-5.6,3.1-0.5,3.1,2.2c0,1.2,7.1,10.8,8.5,13
		c2.4,4.3,6.1-0.2,3.7,2.2c0,0-3.6,7.4-0.7,9.5c4,2.9,3.6,5.1,5.7,7.1c8.2,7.9-2.3,4.4,3.5,9.9c0.5-0.3,0.9-0.6,1.4-0.7
		c3.7-0.8,5.7-7.4,7.9-11c1.8-2.8,3.6-14.7,8.7-8.5c5.4,6.7,10,1.4,16.1,2.8c3.1,0.8,5.3-2,0.5-7.9c-1-1.2-3.2-5.3,0.2-5.9
		c18.6-2.9,13.1-12.5,16.7-12.7c3.5-0.2,0.3,1.8,4.1-0.8c2.8-1.9-1.5-4.9-0.3-7.9c0.3-0.8,1.8-4.4,2.6-4.5c0.8,0,11.1,8.8,11.2,9.3
		c0.2,0.5,0.8-2.6-1.9-4.2c-6.2-3.7,7.9-2.5,7.8-10.8c-0.1-3.2,0.8-5.4,0.1-8.5c-7.3,1.6-4,1.5-10.8-0.8c-2.9-1-4.4-9.6-6.8-5.4
		c-2.3,4.2-3.5-3.3-7.6,2.5c-2.4,3.4-8.3,1.6-6,6.9c0.8,1.9-3.7,5.9-8.3-1.7c-3.4-5.9-4.1-4.8-6.2-11.9
		C1012.3,182.6,1007.7,189.9,1009.5,194.9L1009.5,194.9z"/>
	<path id="_40578648" fill="#E5EBFA" stroke="#BABABA" d="M972.6,242.4c-1.4-2.4-8.5-11.8-8.5-13c0-2.6,0.3-7.7-3.1-2.2
		c0,0-3.3,10.5-5-0.1c-0.6-3.7-5.2-1.9-9.1-5.9c-0.3-0.3-1.1-1.9-2.2,1.4c0,16.9-2.9,0.9-6.9,12.4c-1.9,5.6-13.5-0.2-12,2.6
		c0.6,1.2,4.3,1-4.9,2.4c-4.8,0.7,0.8,6.6-7,5.4c-2.5-0.3-3.7,4.5-10.1,6.8c-7.9,2.8-10.4,15.1-12.2,11.4
		c-6.1-12.1-3.9-6.9-8.5-10.7c-1.2-1-7.6,0-4.1,4.1c2.5,2.9-0.5,4.6,2.5,13c0.5,1.1,2.3,1.9-2,4.3c0,1.9-0.6,2.7-1.8,4.8
		c-6.8,10.4-0.6,6.5,3.1,10.3c3.5,3.6,4.9-1.8,6.7,3.5c3.1,9.1,3.2,2.8,4.4,8.5c1.8-1.5,4-2.9,6.8-4.6c5.1-3.2,10.3-20.8,17.6-18.6
		c5.8,1.8,4-4.4,7.1-2c1.6,1.1-0.1,2.2,3.7,5.7c4.5,4.1,1.4,8.3-0.9,12.8c-2,4-9.1,7-6.3,10.1c1.2,1.4-8.2,5-1.7,7.1
		c2,0.7,7.4-1.2,4.5,1.8c-0.7,0.8,2.6,7.1,5.4,3.9l4.4-5.3c2.4-3.2,9.6-9.3,13.4-10.3c2.5-0.7,2.3-2.7,4.9-2.9
		c2.7-0.2,5.8-2,8.7-2.4c5.7-0.7,2.9-3.1,7.8-8.5c3.3-3.7,2.4-4.1,6.9-7.1c2.2-1.5,0.1-1.6,5.1-4.5c1.9-1.1,3.4-4,5.2-5.4
		c-5.8-5.4,4.6-1.9-3.5-9.9c-2-2-1.6-4.2-5.7-7.1c-2.9-2.2,0.7-9.5,0.7-9.5C978.9,242.1,975,246.7,972.6,242.4L972.6,242.4z
		 M917.9,320.1c-3.9,3.7-1.9,0.2-2.2,4.9c-0.1,2.4,1.9-0.6,3.6-0.9c1.2-0.3,5.3-2.7,5.3-2.7c0.1-0.7-1.2-2.4-1.5-2.5
		C923.4,318.7,918.9,319.2,917.9,320.1L917.9,320.1z M942.4,315c-1.5,0.3-1.2,2.2,0,2.3c0.8-0.9,4.9-2.5,0.7-2.3
		C942.8,315,942.6,315,942.4,315z M947.9,314c-0.3,0.9,0.5,2.2,1.8,0.9c0.1-0.1,0.3-0.2,0.3-0.2C950.1,313.9,948.2,313.6,947.9,314
		L947.9,314z M935.6,312.8c-2.9,2.5,0.9,3.7,0.9,0.6C936.5,312.7,935.7,312.7,935.6,312.8z M938.8,311.7c2.2,2.9,5.3,0,4-0.1
		c-4.3-0.2-4-1.6-5.3-1C936.8,310.7,938.5,311.5,938.8,311.7L938.8,311.7z M944.8,310.6c-1.5,1.1,3.5,1.7,1.8-0.9
		c-0.1-0.2-0.8-0.1-0.8-0.1C945.1,310,947.2,308.6,944.8,310.6L944.8,310.6z M946.1,306c-0.6,0.2-0.6,3.1,0.7,1.9
		C946.8,307.6,946.9,305.7,946.1,306z M945.6,304.9c-3.2-1.5-2.3,2.5,0,0.8C945.8,305.5,945.7,305,945.6,304.9z M908.3,290.4
		c0,0,3.1-1.4-1-1.4c-0.1,0-0.1,0-0.2,0C907.2,288.9,906.6,292.1,908.3,290.4z"/>
	<path id="_40578320" fill="#D7F2D8" stroke="#BABABA" d="M881,289.5c-3.6-3.7-9.9,0.2-3.1-10.3c1.2-2,1.8-2.8,1.8-4.8l-1.4,0.2
		h-1.1l-1.9,0.1h-1.8l-0.9-0.8l-0.8,0.6l-1.2,0.2h-1.2l-1.9,0.2l-0.7,0.8h-1.5l-0.5-1.5v-1.6l-0.2-1.4l-1.1-1.2l-1.8-0.6l-0.7-1.4
		l0.1-1.6l1.2-0.9l1.2-0.6l0.2-1.1l-1.8-1.1l-0.9-1.6l-1.1-1.2l-0.5-1.7l-1.2-1.2l-0.3-1.8l-0.1-1.5l-0.8-1.2l-1-0.9l-0.9-1.1
		l-1.1-1.1l-1.5-0.5h-1.6l-1.5,0.3l-0.8,0.9l-0.9,0.9l-0.8,0.7l-1.6,0.6h-2.2h-1.5l-0.9,1.1l-0.7,1.2l-0.1,1l0.2,0.8l0.5,0.6v0.9
		l-0.5,0.9l-0.8,0.8l0.5,0.8l0.6,0.6l0.5,0.7l-0.8,1.2l-0.5,1l-1.5,0.6l-1.7,0.2l-1.6-0.2h-1.4l-1.1-0.9h-0.8l-0.6,0.2l-0.3,0.8
		l-1,1l-1,1l-0.6,0.8l-0.7,0.5l-0.6,0.5l-1.5-0.8l-0.6-1l-0.7-1l-2,0.5l-1.4,1.4l-1.4,0.9l-1.5,1.4l-1.4,0.9l-1.2,1.1l-0.9,1.4
		l-0.7,1.5l-1.2,0.8h-1.9h-1.9l-0.8-2.2v-2.4l0.7-2l0.7-2.2l-1.1-1.2l-1.4-1.5l-1.2-0.9l-1.4-0.5l-1.5,1.4l-1.2,1.8l-1.2,1.5
		l-1.4,1.5l-0.7,1.2l-0.5,1.6l-0.6,1.4l-0.5,1.6l-0.8,1.5h-1.9l-0.7,1.8l-0.1,2.2l-0.8,1.1l0.8,1.1l0.6,1.2l-0.2,1l-0.5,0.8l-0.1,1
		l0.7,0.9l0.8,1l0.7,0.9l0.6,1.4c3.2,6.1,2.4,2.7,4.5,9.1c1,2.8,9.5-0.5-3.2,5.3c-8.2,3.6,4.8,5.9,5.3,8.2
		c2.9,11.3,4.1-3.2,1.2,12.8c-0.9,5.2-9.3,0.6-11.3,5.8c-0.6,1.5,4,3.4-0.6,6.6c-1.8,1.2-4.6,8,0.3,9.9c2.2,0.8,8,11.6,8.2,11.7
		c0,0.5-6.5,11.9-6.7,16c-0.2,5.9-8.7,1,1.2,12.2c1.5,0.1,20.5,4.5,20.5,4.5c3.2,1.9,2.4-6.1,6.3-1.2c1.6,2,1.8,0.3,3.9-0.9
		c0.8-2.8-9.3-8.2,1.7-13.9c4.8-2.5,2.9-10.3,8.6-12.4c1.9-0.7,1.4-4.8,3.3-4.3c1.9,0.5-1.1,4.5,6.1-4.9c2.4-3.1,11.2-0.5,12.2-4.2
		c1.1-4.5,0.6-1.7,3.6-3.7c1.1-0.8,0.6-1.5,1.5-2.8c-2.8-1.9,1.4,0.5-4.1-7.4c-0.2-0.2-0.3-0.6-0.5-0.9c-8.7,1.2-20.3-4-13.6-8.8
		c3.7-2.7-0.8-2.2-0.8-11.4c-1.6-0.2-3.7-0.7-5.1,0.5c-8.3,6.9-0.8,1-7.7,0.7c-7.4-0.3,0,3.1-7.9,0c-5.7-2.3-1.1-3.3-2-5.7
		c-2.6-7.1-2-1.9,5.2-8c3.4-2.8-6.7-8,0.5-9c1.6-0.2,7.8-5.3,7.8-5.3c5.2-10.7,5.8,2.3,11.4,2c15.9-0.7-4,2.6,6.5,10
		c2.2-0.1,7.5,4.2,4.8,4.6c-5,0.8-1,8.4,2.8,9.1c5.4,0.9-1.4,2.8,2.5,4.8c0.9,0.5,0.8,0.8,1,1.6c0.5-0.1,0.9-0.1,1.4,0.2
		c9,6,2.4,4.5,9.4,0.3c1.2-0.7,5.2,2.3,9.1-3.4c2.6-3.7-0.8-8.2,9.5-16.4c-1.2-5.7-1.4,0.6-4.4-8.5
		C885.9,287.7,884.5,293.2,881,289.5L881,289.5z M848.9,310.3c-0.1-2.5-1.8-0.5-1.4-5c-2.2,0.1-8-0.5-5.6,3.5c1.1,1.9,3.1,0.6,2.2,4
		c-0.1,0.3,0,0.5,0.1,0.8C845.5,313.6,849.3,316.7,848.9,310.3L848.9,310.3z"/>
	<path id="_40578848" fill="#F8E6EE" stroke="#BABABA" d="M835.3,391.5C835.4,391.1,835.6,391.2,835.3,391.5z M880.6,346.3
		c-4.2-3.7-2.9,2.9-7.6,0.9c-4.2-1.8-4.5,4.3-7.5,0.2c-0.7-0.9-1.4-1.7-2.3-2.3c-0.7-0.5-1.1-0.7-1.5-1c-0.9,1.4-0.3,2-1.5,2.8
		c-3.1,2-2.5-0.8-3.6,3.7c-1,3.7-9.9,1.1-12.2,4.2c-7.3,9.4-4.2,5.3-6.1,4.9c-1.9-0.5-1.4,3.6-3.3,4.3c-5.7,2-3.9,9.9-8.6,12.4
		c-11,5.8-0.9,11-1.7,13.9c1.6,2.8-1.7,4.5-2,5.4c-2.4,5.2,3.5,0.5,3.7,0.3c4.4-0.7,1.4-1.6,4.4-2.3c2.9-0.7,4.1-1.9,4.4-2.5
		c-0.1,0.1-0.1,0.3-0.2,0.7c-1,4-11.1,8.7-11.2,10.9c-0.2,4.5-4.5,2.9-5.6,5.3c-0.9,2.2-7.4,8-2,8c8.7,0,3.4,0.6,6.5,1.7
		c9.1,3.4-5.6,6.9,17,6.1c2.4-1.4,1.4-1.1,2.8-2.3c1.9-1.5-1.1-5.6,2.7-5.8c4.1-0.2,2.8-2.4,4.1-1.5c0.1,0,0.1,0.1,0.2,0.1
		c-3.5-4-5.9-4.3-2.2-7.4c1.7-1.4,0.3,1.9,5.3,7l2.8,3.2c0.8,0.7,1.9,1.7,3.3,2.9c0.3,0.3,0.7,0.6,1,0.9c7.7,7.4,9.3-7.9,13.7-0.6
		c3.2,5.3,5.6,2.7,5.9,1.2c1.5-9.1,2.5-2.5,4.3-5.6c4.1-6.9-0.8-5.8,9-8.4c0.2-0.2,0.5-0.3,0.7-0.5c3.4-1.1,3.3-11.6,7.4-12.5
		c2.4-0.5,7.5-7.5,5.4-9.6c-3.3-3.3,3.5-5.7,2.9-1.1c-0.3,2.4,5.6-0.7,5.8-2c0.2-1.9-1.9-4.8,0.6-6.3c0.6-0.3,5,1.9,2.5-2.8
		c-0.8-1.4-5.4,0-1.1-1.2c5.9-1.6,11.4-4,16.1-7.7c2-1.6,5.1-2,6.6-0.1c1.7,2.2,6.5-1.7,3.3-3.5c-1.5-0.8,1.4-3.6,1.5-5.3
		c0-2.2,3.1-5-2.3-3.1c-4,1.5-5.8-3.3-7.9-1.2c-2.6,2.5-4.1,1.6-7,2.3c-2.3,0.5-1.7-2.6-5.2-2.4c-3.7,0.3-5.9-6.9-10.7-3.4
		c-2.6,1.9-5.4,1.6-6.3,5c-1,3.9-4.9,3.5-6,8.4c-1.8,7.3-21.2,2.9-16.3-2.8c1-1.1,1.9-6,0.9-6.7
		C879.7,349.8,884.8,350.1,880.6,346.3L880.6,346.3z M912.8,334.2c0,0-0.8,4,1.6,1C915.5,333.9,912.8,334.2,912.8,334.2z
		 M912.4,336.7c-0.3-0.1-1.5-0.3-1.8,0C910.3,337.2,914.4,340.5,912.4,336.7z M912.6,340.1c-3.5-1.9-6.8,3.9-1.8,1.1
		C911.6,340.8,913.6,340.7,912.6,340.1z M913.7,342.3c-0.5,0.5,0.8,2.7,1.4,0.9C915.8,341.4,914,342.1,913.7,342.3z M911,346.4
		c1.7,2.8,2.2-3.4-2.8-2c-0.2,0-0.1,0.3-0.1,0.6C908.2,346.5,909.9,344.6,911,346.4L911,346.4z"/>
	<path id="_40567464" fill="#F8E6EE" stroke="#BABABA" d="M923.1,491.3C923.2,491.3,923.2,491.3,923.1,491.3z M883.6,417.1
		c-1.8,3.1-2.8-3.6-4.3,5.6c-0.2,1.5-2.6,4.1-5.9-1.2c-4.4-7.5-6,7.9-13.7,0.6l-1-0.9c1.7,4.2-1.6,4.6-2.2,2.5
		c-0.2-0.8-4.1-6.6-4.2-6.6l-0.7-0.3c-0.5-0.1-1-0.6-2.2-1.5c-0.1,0-0.1-0.1-0.2-0.1c-1.1-0.9,0,1.2-4.1,1.5
		c-3.9,0.2-0.8,4.3-2.7,5.8c8.5,6.2,7.3,1.4,12.9,9.2c4.1,5.7,9.3-2.2,12.7,7.9c1,3.1,11.8-6.8,5.1,8.7c-2.6,6.1,3.1,3.5,4.6,2.7
		c-2.9-2,1.8-0.8,3.3-1.8c2.9-2.3,5.9,0.8,3.1-1.5c-1.6-1.2-4.3-7.8-0.6-6.3c0.7,0.2,1,0.8,1.2,1.5c1.4,4.1,6.1,3.1,4.4,6.9
		c-3.1,7.1-4.3,4.4-4.4,4.4c-1.2-0.1-2.4,3.3-3.2,0.9c-0.5-1.1-0.5-1.7-0.3-2c-0.2-0.1-0.6-0.2-0.9-0.5c-0.8-0.5-1.4-0.8-1.9-1.1
		c0.9,3.1-0.3,13,7.9,8.8c1.6-0.9,4.9-11.1,9.7-1.2c1.4,2.7,1.1,7.4-4,5c-2.7-1.2-10.3-1.9-5.1,2c5.6,4.2-4.4,6.3-4.4,7.5
		c-0.6,11.3,15,8.2,8.6,15.9c-4.2,5.1,8.7,0.3,10.5,1.5c2,1.5,3.2,1.7,5.7,1.6c1.1-1.2,2.2-1.2,4.6-1.2c-0.1-6.6,6.5-8.6,9.3-6.6
		c1,0.8-2.3-0.5-0.5,1.7c1.5,1.7-2.3,0.8,0.1,2.2c3.3,1.8,0.6,1.4,1.2,2.5c0.3,0.5,0.7,0.6,0.8,0.6c-0.1,0-0.5,0.2-1,0.7l-0.1,0.1
		c0.2,0.3,0.6,1.4,0.5,3.7l-0.1,0.8l1.4,1.5h1c1.1-1.8,3.2-2.4,3.5-4.2c1.5-0.7,1.7-1.6,3.3-1.9l0.1-1.7c4.6-2.6,0.9-6.7,5.6-8.4
		l1.7-1.1c-1-1.4-0.5-2.4-9.7-4.3c-3.6-0.8-2.5-9.9-9.5-3.1c-0.7,0.7-5,1.1-4.9,0.9c0.5-0.8,3.1-1,4.1-1.9c7.8-6.9,9.9,4.4,14.4,1.9
		c6.7-3.6,16.5,7.1,14.3-0.7c-2.2-7.6-10.8-3.4-11.4-9.6c-0.6-5.2-8.3-1.4-9.1-10.4c-0.3-3.7-8.8-15.5-10.2-21.9
		c0-0.1-4.4-9.3-7.1-9.6c-6.7-0.8-13.9-6.7-15.7-6.8c-2.7-0.1-3.1-5-1.4-6.6C882.7,411.3,887.6,410.2,883.6,417.1L883.6,417.1z"/>
	<path id="_40566848" fill="#F8E6EE" stroke="#BABABA" d="M953.2,529C952.8,526.9,953.4,527.5,953.2,529z M962.2,496.5
		c0.3,1.7,2.9-0.7-1-2.6c-0.5,0.2-0.8,0.3-0.9,0.9c-0.2,1.7,0.9,1.1,2.2,1.5C962.5,496.6,962.2,496.3,962.2,496.5L962.2,496.5z
		 M964.2,491.7c-1.1,0.1-0.6,1.5,1.9,1c0-0.5-0.1-1.7-0.7-1.7C964.9,491.1,964.7,491.6,964.2,491.7L964.2,491.7z M967.6,493.8
		c-2.7,0.8,0.1,1.6,1.6,1.2C969.4,494.3,967.7,493.7,967.6,493.8z M970.6,499.8c-1.5,2.2,2.5,0.9,0.8-0.7
		C971.1,498.8,970.7,499.6,970.6,499.8z M968.3,506.6l0.2,1.9C969.5,508.4,969.9,506.4,968.3,506.6z M966,505.3
		c-0.6,1.2,1.6,1,2.2,0.9C967.8,505.5,966.2,504.9,966,505.3z M958.3,501.9c0.5,0.6,4.1,0.1,4.4-0.3c0,0-2.2-0.2-2.4-1.8
		c-0.6-0.1-1.6,0-2,0.3C958.1,500.1,958,501.6,958.3,501.9L958.3,501.9z M953.4,506.4c0.2,0.2,0.3-1.6,0.3-1.7l-1-0.3
		C952.4,504.9,952.4,506.9,953.4,506.4L953.4,506.4z M957.1,503.8c-3.3-0.1-1.5,5,5,2.3c-0.2-0.2-1.6-2.3-1.2-1.1
		c-0.9,1.4-1.4-0.1-2.3-0.6C958.1,504,957.6,503.9,957.1,503.8L957.1,503.8z M955.1,511.6c2.9-0.1,3.6,1.5,6.3,1.7
		c6.1,0.3-4.1-5.2-5.4-5.6C954.2,507.4,950.9,511.9,955.1,511.6L955.1,511.6z M959.3,518.8c1.1-0.5,3.6-0.8,1.1-1.5
		c-0.1-1.4,1.1-0.3,1.1-1.8c0-0.8-1.1-1.2-1.7-0.9c-0.6,0.3-0.6,2.3-1.7,2.5c-2.4,0.3-1.2,0.6-0.1,1.8
		C959.1,520,958.3,519.3,959.3,518.8L959.3,518.8z M958.9,524.5c3.3,0.6,1-2.5,0.3-1.9c-0.2,0.2,0,0.7-0.1,1
		C958.8,524.1,958.9,524.5,958.9,524.5L958.9,524.5z M956.7,528.6c-1.1,1,1.4,3.2,1.4,1.5C958,529.7,957.2,528.1,956.7,528.6z
		 M953.3,532.5c3.7,2.7,3.7-1.7,1.6-1c-0.3,0.1-0.2,0.1-0.2,0.1C954.1,531.7,953.4,532.4,953.3,532.5L953.3,532.5z M953.6,539.9
		c-1.4,1.1,1.9,2.4,1.5,1C954.6,539.8,954.5,540.1,953.6,539.9z M955.8,544.3c0.1,1.7,1.9,7.1,2.5,2.5c0.2-1.5-0.2-2.4-1.6-2.9
		L955.8,544.3L955.8,544.3z M951.1,550c-0.6,2.9,2.8,1.6,1.2,0.1C952.3,549.8,951.3,550,951.1,550z M942.5,557.9
		c0.6,0.8,5.3,1.9,2.9-2.3c-0.2,0.1-0.6,0.1-0.8,0.3L942.5,557.9L942.5,557.9z M942.1,561.5c0.6-1.2,0.8-2.3-1-2
		C940.8,560.4,941.5,561,942.1,561.5z M944.7,560.1c-0.7,0.3-0.3,0.8-1.4,0.8c-2.5,0.1,2.6,4,2.3,0.1
		C945.6,560.5,945.5,559.7,944.7,560.1L944.7,560.1z M922,492.1C921,492.9,921.5,491.4,922,492.1z M921.5,484.4
		c-2.7-2-9.3,0-9.3,6.6c-2.5,0-3.5,0-4.6,1.2l-0.1,0.8l0.1,0.8l0.1,0.9l-0.6,1.2l-0.2,0.9l-0.5,1v0.7l-0.2,1.1l-0.2,0.6l-0.3,0.7
		l-0.2,1.1l-0.7,0.7l-1,0.3l-1,0.5l-0.8,0.7l-0.9,0.6l1.1,0.8l0.5,0.6l0.9,0.9l0.6,0.9l0.1,0.8l-0.3,0.9l-0.8,0.8l-0.6,0.7l-1,0.6
		h-1.2l-0.9-0.3l-1-0.7l-0.8-0.2l-1,0.2l-0.9,0.7l-0.6,0.9l-0.1,0.9v1.4v0.3l0.5,1.2l0.5,0.8l0.5,0.7l0.1,0.3l-0.1,0.9l-0.1,1
		l-0.5,0.3l-0.6,0.7l-0.3,0.6l-0.2,0.8l-0.3,0.5l-0.3,0.5l-0.3,0.3l-0.2,0.6l-0.3,0.5l-0.5,0.8l-0.7,0.7l-0.3,0.8l-0.6,0.6l-0.7,0.9
		l-0.7,0.6l-0.6,0.7l-0.8,0.7l-0.9,0.5l-0.6,0.5l-0.8,0.5l-0.7,0.5l-0.7,0.2l-0.8,0.1c0.2,1.8-2.2,4.1-2.2,4.1
		c-1.7,4.5,8.3,7.7,9.2,16.1c0.2,2.3,0.7,3.4,1.2,3.9c2,1.9,5.4-4,5.7,5.2c0.1,3.7,3.4,6.7,3.4,10.8c0,3.2,3.2-0.1,5.1,1.2
		c3.5,2.5,7.1-7.8,9.4-4.5c4.4,6.5,1.8,7,10,3.9c3.2-1.2,4.9,1.5,6.8,3.4c4-1.1,1.5-8,1.8-8.8c1.2-3.2,5.3-6,0.9-8
		c-8.2-3.6,4.8,0.5,5.6-2.5c1-3.6,2.6-1.9,0.8-5.1c-1.2-2.2,2.2-3.1,4.4,0.6c1.8,2.9,2-3.5,5.6-3.4c1,0,3.1,1.2-0.9-4.1
		c-3.6-5-8.6-2.9-0.6-4.2c2.4-0.3,2.9-2.7,0.6-3.4c-6.9-1.8,8.8,1.5-2.8-4.8c-1.6-0.9,1-2.7,1.6-3.9c1-1.9,2,5.3,3.6,1.6
		c0.1-0.3,0.2-0.7,0.3-1c0,0.2,0.1,0.5,0.1,0.8c0.1,0.9,3.4,2.8,2.2-3.3c-1.9-10.1-0.2-5.2-5.9-2.8c-0.2,0.1-5.6,4.3-4.4,0.8
		c0,0,2.9-0.7,7.6-5.8c3.7-4.1,5.4-2.5-3.2-5.2c-6.5-1.9-6.3-10.9-14.3-3.6c-6.9,6.3-4.5-5.1-12.8,0.2c-4.8,3.1,0.6-3.3,5.7-3.2
		c8.2,0.2,3.4-2.3,8.3-5.6c1.5-1,2.7-2.3,4-3.4c-1.6-0.2-1.6,0-2.4-1.2c-1.5,0.1-1.6,0-2-0.9l-1.6-0.2c-1.8-1.9,1.2-3.1-2.7-3.7
		c-1.5,0.2-1.7,1.2-3.3,1.9c-0.3,1.8-2.4,2.4-3.5,4.2h-1l-1.4-1.5l0.1-0.8c0.1-2.4-0.2-3.4-0.5-3.7l0,0l0.1-0.1
		c0.2-0.1,0.3-0.2,0.5-0.3c0.1,0,0.1-0.1,0.2-0.1c0.1-0.1,0.2-0.1,0.3-0.1c-0.1,0-0.5,0-0.8-0.6c-0.7-1.1,2.2-0.7-1.2-2.5
		c-2.4-1.4,1.4-0.5-0.1-2.2C919.2,483.9,922.6,485.2,921.5,484.4L921.5,484.4z"/>
	<path id="_40569488" fill="#F8E6EE" stroke="#BABABA" d="M894.9,513l0.1-0.9l0.6-0.9l0.9-0.7l1-0.2l0.8,0.2l1,0.7l0.9,0.3h1.2
		l1-0.6l0.6-0.7l0.8-0.8l0.3-0.9l-0.1-0.8l-0.6-0.9l-0.9-0.9l-0.5-0.6l-1.1-0.8l0.9-0.6l0.8-0.7l1-0.5l1-0.3l0.7-0.7l0.2-1.1
		l0.3-0.7l0.2-0.6l0.2-1.1v-0.7l0.5-1l0.2-0.9l0.6-1.2l-0.1-0.9l-0.1-0.8l0.1-0.8c-2.5,0.1-3.6-0.1-5.7-1.6
		c-1.7-1.1-14.6,3.5-10.5-1.5c6.3-7.7-9.2-4.5-8.6-15.9c0.1-1.1,10-3.3,4.4-7.5c-5.2-4,2.4-3.3,5.1-2c5.1,2.4,5.2-2.3,4-5
		c-4.8-9.9-8,0.5-9.7,1.2c-8.3,4.3-7-5.8-7.9-8.8c-0.3-0.2-0.6-0.3-0.8-0.5c-1.6,0.8-7.4,3.4-4.6-2.7c6.7-15.5-4.1-5.7-5.1-8.7
		c-3.4-10.1-8.6-2.3-12.7-7.9c-5.7-7.9-4.4-2.9-12.9-9.2c-1.5,1.1-0.3,0.9-2.8,2.3c-0.2,9.1,6.3,2.7,6.8,8.3
		c0.6,6.1,5.2,2.3-3.5,8.7c-6.8,5-5.6-8.7-12.4-5.6c-5.7,2.6,4.4,9.5-3.6,11.1c-5.6,1.1,4.3,10-6.2,10c-1.2,0-4.5-2.5-2.5,2.2
		c1.2,2.7,5,0.6,5.3,5.7c0.3,5.1,1.8,0.2,6.2,5.3c3.9,4.5,5.7-9.5,8.3,6.8c2.2,13.5-7.5,1-9.7,16.8c1.2,0.6,2.7,1.5,3.6,3.1
		c0.7,1.4,4.3-0.1,7.4,2.3c4.6,3.6,1.5,0.8-1.8,7c-1.1,2.2,1.9,5.4,2.5,8.3c0.8,5,1.2-2.6,4.2,9.3c0.3,1.4,0.8,2.3,1.2,2.7
		c2.8,2.5,7.7-6.6,10.3-5.4c7.6,3.1-1.5,4-0.6,8.8c0.7,3.9,9.3-2,7.6-4.3c-0.9-1.2,1.8-3.3,2.8-1.9c0.8,1-0.5,1,1.4,0.9
		c5.6-0.2-1.4,5.8,10.3,5.6c4.8-0.1,6.2,1,6.3,2.4l0.8-0.1l0.7-0.2l0.7-0.5l0.8-0.5l0.6-0.5l0.9-0.5l0.8-0.7l0.6-0.7l0.7-0.6
		l0.7-0.9l0.6-0.6l0.3-0.8l0.7-0.7l0.5-0.8l0.3-0.5l0.2-0.6l0.3-0.3l0.3-0.5l0.3-0.5l0.2-0.8l0.3-0.6l0.6-0.7l0.5-0.3l0.1-1l0.1-0.9
		l-0.1-0.3l-0.5-0.7l-0.5-0.8l-0.5-1.2v-0.3L894.9,513L894.9,513z"/>
	<path id="_40562416" fill="#A3D9F7" stroke="#BABABA" d="M838.2,476.9c-2.6-16.3-4.4-2.3-8.3-6.8c-4.4-5.1-5.9-0.3-6.2-5.3
		c-0.3-5.1-4.2-2.8-5.3-5.7c-2-4.6,1.4-2.2,2.5-2.2c10.4,0,0.7-9,6.2-10c8-1.6-1.9-8.5,3.6-11.1c6.8-3.2,5.7,10.5,12.4,5.6
		c8.7-6.5,4.2-2.6,3.5-8.7c-0.6-5.4-7,0.8-6.8-8.3c-22.5,0.8-7.9-2.7-17-6.1c-3.1-1.1,2.3-1.7-6.5-1.7c-5.3,0,1.1-5.9,2-8
		c1-2.5,5.3-0.8,5.6-5.3c0.1-2.2,10.2-6.9,11.2-10.9c0-0.1,0-0.1,0-0.2c0-0.2,0.1-0.3,0.1-0.5v-0.1c-0.3,0.5-1.5,1.8-4.4,2.5
		c-2.9,0.7,0.1,1.6-4.4,2.3c-0.2,0-6.2,4.9-3.7-0.3c0.5-0.9,3.6-2.5,2-5.4c-2,1.2-2.2,2.8-3.9,0.9c-4-4.8-3.1,3.2-6.3,1.2
		c0,0-18.9-4.3-20.5-4.5c-1.4,13.7-0.2,18.5-11.6,22.3c-7.1,2.4,4.6,1.9-12.1,2.5c-9.7,0.3,0.1,1.2-7,3.3c-9.9,2.8,0.3,4.4-12.2,6.3
		c-4.9,0.7-3.3,2.8-15,5.1c-0.3,0.1-0.7,0.3-1,0.5c2.3,2.8,2.3,6.6,3.4,7.5c0.8,0.7,3.4,5.3,2.2,6.6c-0.3,0.5,1.1,1,2.7,3.5
		c3.5,5.7,2.9-2.3,3.2,9c0,0.2,0,0.6,0.1,0.7l0,0c0.7,1.5,3.2,1.5,4.6,6.3c0.8,2.5,5.4,7.7,7.9,7.7c4.3,0.1,9.4,6.9,13.6,4.9
		c4.4-2.2,4.6,0.8,8.8-0.9c7.5-3.2,6.7,5.1,13.7-0.2c4.3-3.3,1.8,6.7,2.3,7.4c0.9,1.1,2.3,3.4,3.5,4.2c3.4,2.2-0.5,2.5,4.9,0.2
		c0.5-0.2,7.6,1.9,7.7,2.3c0.8,3.5,1.9,2.9,5.2,4.5c4.2,2,6.1-7.9,7.3,0.6c0,0.2,1,0.6,2.2,1C830.7,477.9,840.3,490.4,838.2,476.9
		L838.2,476.9z"/>
	<path id="_40562088" fill="#D7F2D8" stroke="#BABABA" d="M782.6,410.5c11.3-3.9,10.2-8.6,11.6-22.3c-10-11.2-1.5-6.3-1.2-12.2
		c0.2-4.1,6.7-15.5,6.7-16c0-0.1-6-10.9-8.2-11.7c-5-1.8-2.2-8.6-0.3-9.9c4.6-3.2,0-5.1,0.6-6.6c2.2-5.2,10.4-0.7,11.3-5.8
		c2.8-15.9,1.7-1.5-1.2-12.8c-0.6-2.3-13.5-4.4-5.3-8.2c12.7-5.8,4.2-2.4,3.2-5.3c-2.2-6.3-1.4-3.1-4.5-9.1c1.2,10-2.6,5.3-6.7,10.2
		c-2.9,3.5-8.7-1.2-11.6,2.6c-3.7,5.1-8.8-3.5-12.2,3.6c-1,2.2-2.7,8.4-3.4,10.7c-1.1,4-4.5-2.5-9.2,2.4c-3.9,4.1-2,1-5.4,2.4
		c0,4.9,4.2,0.2-1.2,9.9c-1.6,2.8,0.1,9.7-6.7,14.2c-2.6,1.7-1.5,7.4-0.1,9.2c6.9,8.8-0.3,6.3,1.2,12c0.8,2.7-6.9,4.8-3.2,17.7
		c1.2,4.3-2.2,9.7,1.1,13.7c4.8,5.9-10,22.7-4.1,27.6c0.5,0.3,0.8,0.7,1.1,1.1c0.3-0.1,0.7-0.3,1-0.5c11.8-2.3,10.1-4.4,15-5.1
		c12.6-1.9,2.4-3.5,12.2-6.3c7.3-2-2.6-3.1,7-3.3C787.3,412.4,775.5,412.9,782.6,410.5L782.6,410.5z"/>
	<path id="_39889000" fill="#CC9FC5" stroke="#BABABA" d="M712.4,352.9C712.7,353.2,712.7,353.3,712.4,352.9z M734.1,427
		c-6-5,8.8-21.8,4.1-27.6c-3.2-4,0.2-9.4-1.1-13.7c-3.7-12.9,3.9-15,3.2-17.7c-1.6-5.8,5.7-3.3-1.2-12c-1.5-1.8-2.5-7.5,0.1-9.2
		c6.8-4.4,5.1-11.3,6.7-14.2c5.4-9.6,1.1-5,1.2-9.9c1.6-4.9-3.6-2.7-6.2,1.9c-1.8,3.2,0-1-5.2-0.2c-0.3,0-6.2-2.9-5.7-0.9
		c0.1,0.2,4.9,2.7-0.2,3.4c-3.4,0.5,0.6-1.8-5.3,4.1c-2,2,1.6,1.9-4.5,5.2c-0.3,0.2-10.8,11.7-9.3,14.5c0.9,1.6,1.5,2.3,1.8,2.6
		c-0.5-0.2-1.6-0.6-3.6,0c-3.4,0.9,5.1,10.7-6.1,6.9c-3.7-1.2-0.5,4.3-9.3-1.6c-1.8-1.1-3.2-1.9-4.8-1.5c-1.2,0.3-2.6,1.6-4.4,4
		c-2.6,3.6-1.9,7.3-2.3,11.2c-0.7,8.2,2.4,3.1,12.2,10.3c8.4,6.2,14.7,3.5,11.4,13.6c-1.8,5.6-6.3-0.2-1.8,11.4
		c3.2,7.9-17.6,1.6-16.5,5.8c0.1,0.5,7.4,6.5-6.6,6.5c-4.8,0-7.6-7.8-13.8-4c-4.3,2.7,2.9,2.4-1.6,7.4c-6.5,7,3.7,2.9,4.8,8.2
		c0.3,1.9-5.3-1.6-5.3,9.7c0,8.3,9.7,7-4.5,6.6c-3.1-0.1-2.5-3.4-9.3,4.1c0.7,1.8,9.2,8,0.6,9.9c-2.7,0.6-5.3-1.7-5.3,2.7
		c0.6-0.2,0.7,0.5,2.6,2.3c0.5,0.5,8-6.6,9.4-0.3c1,4.9,15.4-2,16.7,2.5c2,7.6,6.5,1.2,7,3.6c0.7,2.8,2.9,1.1,5.6,4
		c3.4,3.7,2.9,2.5,5.9,1.1c1.4-0.6,3.3-0.3,5.6,0.5c12.4,4.2,4.5,4.3,10.2,5.9c3.2,0.9,2.2,0.7,3.2,2c3.6,4.8,7.5,3.2,9.4,3.3
		c0.5-6.2-3.2-2.9-0.2-7.5c1.7-2.6-5.4-4.6-0.1-10.7c1.9-2.2,11.1,1.7,10.7-2.9c-0.5-5.9-6.1-2.2-6.7-6.1c-0.6-4.4-6.1-3.4-6.3-4.1
		c-1.2-2.8,11.3-1.1,12.8-0.8c9.9,1.9,3.4-4,7.8,0.8c2.4,2.6,4.6-1,7.1-2.2l0,0c-0.1-0.2-0.1-0.5-0.1-0.7c-0.2-11.3,0.3-3.4-3.2-9
		c-1.6-2.6-3.1-3.2-2.7-3.5c1.2-1.2-1.4-5.9-2.2-6.6c-1.1-0.9-1.1-4.8-3.4-7.5C734.9,427.7,734.6,427.4,734.1,427L734.1,427z"/>
	<path id="_40549512" fill="#CC9FC5" stroke="#BABABA" d="M665.1,410.5c-0.9,0-7.7-6.3-7.7-6.3c-6.1-1.9,2.3-0.9-5.8-3.7
		c-8.2-2.9-0.1-8.4-0.1-9.7c0.2-7.8-8.5-6.1-2.7-12.4c1.8-2-5.3-5.6-6.9-9.1c-1.1-2.6-7.1-0.2-3.7-2.3c3.2-1.9-0.8-4-3.1-4.2
		c-9.7,0.3-8.7-2.9-15.6-8c-0.8-0.6-2.2-1.4-2.6-2.3c-2-4.1,4.2-6.1,2.3-10.2c-1.2-2.6,5.6-1,11-9.9c4.3-7.1,0.2-4,0-10.2
		c-0.2-7.8-16.8,6.3-20.6,4.1c-6.8-3.9-7.6-1.9-10-1.9c-11.4,0.3-0.8,3.6-2.8,5.8c-5.9,6.2-4.6,7.3-15.2-2.3
		c-3.5-3.2-5.8,0.2-4.4-4.8c1.8-6.7-2.6-5.2-5.7-8.5c-1.4-1.5-1.9-0.7-2.3-2.8c-0.2-1.5-3.4-2.8-5-4.2c-8.5-6.6-13.7,2.3,2-12.8
		c9.5-9.1,1.4-13.4-11.8-11.7c-16.5,2-8.5,0.9-10.3,5.3c-0.8,2-7.7,0.7-5.1-4.5c1.4-2.7-5.6-9.9-7.4-12.6c-5.1-7.8-0.5-3.3,1.1-9
		c0.6-2.4-5.7-19.8-7-23.3c-4.8-0.6-8.8-1-11.3-1.1c-1.4,0-1.9-0.1-2.4-0.5c-5.6,4.6-5.8,4.1-4.1,11.1c0.6,2.2,1.9,5.3-5.6,5.4
		c-6.6,0.1-6,4.1-9,2c-6.8-4.5-18.9,6-23.1,11c-2.2,2.6-11,12-14.4,10.5c-9.9-4.2-6.1,0.2-9.9,10.2c-2.2,5.8,1.2,10.7-4.4,15
		c-3.5,2.6-2.9,3.5-2.9,3.6c2.9,2.7,8.7,2.7,9.2,7c0.2,2.8,15.7,1.1,10.3,3.5c-4.4,1.9,2.2,2.5,5.2,1.8c5-1.1,2.4,9.9,8.3,9.2
		c15.3-2,5.7,1.2,18.7,3.9c3.5,0.7,4.2-2,7.1,1.6c3.9,4.6,4.2-0.7,6.9,0.1c4.2,1.4,0.2-5.3,3.5-6.9c7.7-3.7-1.4-22.1,14.3-8.3
		l7.6,6.1c2.7,0.6,2.6-5.1,5.9-3.3c4.4,2.4,5.9-4.1,9,0.8c1.4,2.2,18.7,22.2,18.5,15.7c-0.1-6.8,3.1,1.9,5.6,2.8
		c2.6,0.9-0.2,1.5,6,5.9c4.3,3.1,1.9,0.3,8.4,6.6c8.7,8.4,5.9,1,9.6,0.9c2.6-0.1,0.6,5.4,2.2,6.6c14.2,9.3,1.8,7.5,8.5,14.2
		c1.6,1.6-2.8,1.5,0.5,4.6c2.3,2.3,0.6,4.2,3.5,6.2c3.5,2.6-0.9,4.2-0.8,7.5c0.1,3.9-3.6,1.2-3.6,6.2c0,5.3-9.9,1.6-7.6,9.3
		c1.1,3.7-14.3,5.4-8.8,11.9c6.7,7.8,6.5,2.6,0.3,9.6c-5.1,5.8-17.7-12.5-21.2-2.5c-0.2,0.8,7.6,12.1,8.5,12.4
		c4.4,1.1,4.4-0.7,6.8,3.9c0.3-0.9,0.9-1.4,2-1c3.1,0.8-4.3,13.1,2.9,7.9c6.7-4.9,9.4-5,7-7.7c-6.5-7.5,0-8,0.8-8.8
		c0.8-0.7-0.5-1.4,1.7-1.7c5.3-0.8,3.6-6.7,8.5-2.5c2.2,1.8,4,2.4,3.1,5c-2.2,6.6,5,6,5.9,6.7c2.8,1.9,5,0.7,8.2,1.2
		c3.7,0.7,7.8,12.7,5.2,16.8c-2.4,3.7,12.4,9,16,6.8c2.3-1.4,3.5-2.3,4.2-2.6c-0.1-4.4,2.5-2.2,5.3-2.7c8.6-1.8,0.1-8-0.6-9.9
		c6.8-7.5,6.1-4.2,9.3-4.1c14.3,0.5,4.5,1.7,4.5-6.6c0-11.2,5.7-7.7,5.3-9.7c-1-5.2-11.2-1.1-4.8-8.2c4.5-5-2.7-4.6,1.6-7.4
		c6.2-3.9,9.1,4,13.8,4c13.9,0,6.7-6,6.6-6.5c-1.1-4.2,19.6,2.3,16.5-5.8c-4.6-11.8,0-5.9,1.8-11.4c3.3-10.1-3.1-7.5-11.4-13.6
		c-9.9-7.4-12.9-2.3-12.2-10.3c-15,1.1-10.2-2.8-11.1,6.1c-0.2,2.3-5.7,4-3.5,6c3.7,3.6-2.7,4.8,1.9,5.2c9.5,0.9,6.3,12.2,2.6,12
		c-4.3-0.2-3.9-3.4-5.4,4C666.5,405.9,669.1,410.6,665.1,410.5L665.1,410.5z"/>
	<path id="_40549184" fill="#A3D9F7" stroke="#BABABA" d="M721.6,470.9c-5.3,6,1.8,8.2,0.1,10.7c-2.9,4.5,0.8,1.2,0.2,7.5
		c0.8,0,1.4,0.2,1.8,1c1.6,2.8-0.9,2.4,1.5,2.4c1.5,0,8.6,4.5,6.6,9.6c-1.2,3.2,0,6.8-4.6,5.6c-4.8-1.2-8.4,11-15.6,6.2
		c-1.2-0.8-1.9-1.4-2.9,0.1c-2.4,3.2-2.9,0.1-7.5,1.9c-3.3,1.4-1.7,2.5,0,4.3c1.1,1.1,0.7,6.6-0.6,7.8c-2.8,3.1-0.3,5.1,1.2,2.6
		c1.6-2.4,1.7,1.7,2.7,2.4c2.6,1.9,2.6,6.3,5.7,6.9c2,0.3,1.1,3.9,2.9,5c0.2,0.1,0.5,0.3,0.6,0.5c1.5-1.2,5-10.2,6.2-10.3
		c4.2-0.6,9.6-6.9,13.8-2.4c2.9,3.2,7-1,6.9-1.1c0.2-1.6-2.3-1.9-1.8-5.8c1.2-0.5,2.7-0.3,4-0.7c0.9-2,3.9-0.1,5.4,0.1
		c4.3,0.5,7.4,3.4,11.8,3.4c3.9,0,10.2,4.2,11.2,5.6c2.2,2.7,3.2,0.1,5.9,0.1c5.9,0,3.7-3.3,6.2-3.9c4.6-1,2.2,2.6,2.2,3.9
		c0,9.6,8.3-2.5,9.9-4.5c2.9-3.7,0.1,1.5,1.8,2.5c6.9,4.1,1.7,4.5,1.9,10.7c0.1,1.2,2.9,2,5.6,3.9c-0.2-5,3.1-3.6,5.7-7
		c0.2-0.2,6.5-2,6.5-2c6.2,0,6.1-7.4,9.2-4.2c2,2,0.2-2.5,2.3-2.5c5.9,0,3.4-3.1,5.6-4.2c5.6-3.1,3.6,6.3,11.7-0.6
		c-0.6-0.5-0.9-1.2-1.2-2.7c-2.9-11.8-3.3-4.3-4.2-9.3c-0.5-2.9-3.6-6.1-2.5-8.3c3.2-6.2,6.5-3.4,1.8-7c-3.1-2.4-6.7-0.9-7.4-2.3
		c-0.9-1.6-2.4-2.5-3.6-3.1c-1.1-0.6-2.2-0.8-2.2-1c-1.1-8.6-3.2,1.4-7.3-0.6c-3.3-1.6-4.3-1-5.2-4.5c-0.1-0.5-7.3-2.5-7.7-2.3
		c-5.3,2.2-1.6,1.8-4.9-0.2c-1.2-0.8-2.6-3.1-3.5-4.2c-0.6-0.7,1.9-10.7-2.3-7.4c-7,5.4-6.2-2.8-13.7,0.2c-4.1,1.7-4.4-1.1-8.8,0.9
		c-4.1,2-9.2-4.8-13.6-4.9c-2.5-0.1-7.3-5.2-7.9-7.7c-1.5-4.9-4-4.9-4.6-6.3c-2.5,1.1-4.8,4.6-7.1,2.2c-4.3-4.8,2,1.1-7.8-0.8
		c-1.5-0.2-14-2-12.8,0.8c0.2,0.7,5.8-0.3,6.3,4.1c0.6,4,6.2,0.2,6.7,6.1C732.6,472.6,723.4,468.7,721.6,470.9L721.6,470.9z"/>
	<path id="_40548664" fill="#F8E6EE" stroke="#BABABA" d="M808.5,553c0.3,3.7,3.9,7.5-0.2,10.1c-2,1.2-0.9,3.9-3.2,5.3
		c-4.5,2.9-2.4,3.2-4.8,6.8c-1.4,2-3.1,7.8,0.9,7.7c7.9-0.1-0.5,2.5,3.9,7.9c1.4,1.7-2.3,7.7,1.1,7.9c3.6,0.2,2.3,1,2.8,3.7
		c0.3,1.5-1.9,5.2-1.7,5.7c1.6,2.8,4.1-1.9,4.9-1.2c0.9,0.7-3.1,3.4-3.1,3.9c0,3.2-1,4.1-2.5,6.5c0,0,0.5,4.3,1.5,7.5
		c0.6,1.9,1.2,3.4,2,3.3c9.2-0.2,6.7-5.8,12.7-0.2v1.1c0.5,4.4-3.6,1.9-5.7,8c-0.5,1.4-4.2,4.8-4.1,5c0.8,3.4,7.8,1.4,9.6,1.1
		c5.8-0.5,5.2-3.2,7.3-3.2c4.2-0.2,5.9-2.3,7.9-2.3c0.8,0.8,5.3,5.3,6.2,5.3c2.8,0.1,0.5-3.3,0.3-3.9c-0.7-3.2,0.3-4.4,2-4.9
		c0.3-11.2,0.6-5.8,2.3-14.5c2.7-14.3,10.5-9.7,7.7-13.8c-4.1-5.9,4.1-3.6,2.4-7.4c-4.8-10.7,0.8-9.9,5.1-12.4
		c5.3-3.1,3.2-7.8,3.2-7.8c-0.8-5.9-2.9-5.4,0.1-6.5c1.7-0.6,5.6-9.2,7.9-6.3c4.2,5,2.7-0.9,7.6-1.8c4.1-0.8,2.4-2.3,4.1-2.4
		c5.9-0.5-1.4-1.5,5-5.2c-0.6-0.6-1-1.7-1.2-3.9c-0.9-8.4-10.9-11.6-9.2-16.1c0,0,2.4-2.3,2.2-4.1c-0.1-1.4-1.6-2.5-6.3-2.4
		c-11.8,0.2-4.8-5.9-10.3-5.6c-1.8,0.1-0.6,0.1-1.4-0.9c-1-1.4-3.7,0.7-2.8,1.9c1.7,2.3-6.9,8.2-7.6,4.3c-0.8-4.8,8.2-5.7,0.6-8.8
		c-2.6-1-7.6,7.9-10.3,5.4c-8,6.9-6.1-2.5-11.7,0.6c-2,1.1,0.3,4.2-5.6,4.2c-2.2,0-0.3,4.5-2.3,2.5c-3.1-3.2-2.9,4.2-9.2,4.2
		c0,0-6.3,1.8-6.5,2c-2.6,3.4-6,2-5.7,7C806.4,548.1,808.1,550,808.5,553L808.5,553z"/>
	<path id="_40484744" fill="#EECC77" stroke="#BABABA" d="M710.8,722.7c0.2-0.3-0.5-1.4-1.6-0.9
		C707.9,723.1,709.2,725.3,710.8,722.7z"/>
	<path id="_40547016" fill="#EECC77" stroke="#BABABA" d="M711.4,726.2c1.9,0.8,2.2-1.1,0-0.7V726.2z"/>
	<path id="_40524208" fill="#A3D9F7" stroke="#BABABA" d="M808.1,624.6c-0.9-3.2-1.5-7.5-1.5-7.5c1.5-2.4,2.5-3.2,2.5-6.5
		c0-0.5,4-3.2,3.1-3.9c-0.9-0.6-3.3,4.2-4.9,1.2c-0.2-0.5,2-4.3,1.7-5.7c-0.7-2.7,0.7-3.5-2.8-3.7c-3.4-0.2,0.2-6.2-1.1-7.9
		c-4.3-5.4,4.1-8-3.9-7.9c-4,0.1-2.3-5.7-0.9-7.7c2.4-3.6,0.2-3.9,4.8-6.8c2.3-1.5,1.1-4,3.2-5.3c4.1-2.6,0.6-6.3,0.2-10.1
		c-0.3-3.1-2-5-3.9-6.3c-2.6-1.8-5.4-2.6-5.6-3.9c-0.3-6.1,5-6.6-1.9-10.7c-1.7-1,1.1-6.2-1.8-2.5c-1.6,2-9.9,14.2-9.9,4.5
		c0-1.4,2.5-4.9-2.2-3.9c-2.5,0.6-0.2,3.9-6.2,3.9c-2.7,0-3.6,2.6-5.9-0.1c-1-1.4-7.4-5.6-11.2-5.6c-4.3,0-7.5-2.9-11.8-3.4
		c-1.6-0.1-4.4-2-5.4-0.1c-1.2,0.5-2.7,0.2-4,0.7c-0.5,3.9,2,4.2,1.8,5.8c0.1,0.1-4,4.3-6.9,1.1c-4.2-4.5-9.6,1.7-13.8,2.4
		c-1.2,0.2-4.8,9.1-6.2,10.3c2.6,2,0.1,3.6,0,6.7c0,0.9,1.6,1.7,0.9,2.2c-0.7,0.3-1.4,2-0.7,2.8c1.5,1.8,0.3,1.1-0.2,3.1
		c0.7,5.4,3.6,4,2.4,6.6c-4.5,10.1,4,8.7,2,12.5c-2.5,4.9-6,1.6-12.4,10.5c-4,5.7,8.8-4.1,13.3,0.8c2.5,2.7-1.8,2.2-0.3,4
		c2,2.6-4.2,3.7-3.1,5.3c3.2,4.1-1.4,4.4-0.6,7.9c1.7,0.1,0.9-0.2,2.8,0.2c0.9,2,0.3,4.1,0.5,6.2c1.2-0.8,2.7-0.8,4.3,0.8
		c0.1,0.1,1.5,5.2,2.6-0.9c0.7-3.7,3.5-5.6,5.6-1.8c4.1,7.3,7.1-6.9,12.2-5c2.6,1,8.2-2.7,10.2,0.7c1.1,1.8-3.3,10,2.2,7.5
		c3.1-1.5-0.9,4.8-0.9,8.5c0,2.6-10.3,11-5.7,12.4c1.4,0.5,6.9-8.5,9.1-0.9c0.6,1.9-1.8,9.5,2.8,7.3c3.6-1.7-0.7-3.7,7.1-1.8
		c4.6,1.1,2.5-8.6,5-9.2c11.2-2.4,10.2,7.8,14.7,4.3c1.5-1.1,1.9-6.6-0.3-6.8c-2.7-0.3,2.6-2.9,3.6-4.2c3.6-4.2,8,6,14.8,0.5
		C806.5,625,807.3,624.9,808.1,624.6L808.1,624.6z"/>
	<path id="_40526624" fill="#FDDDB9" stroke="#BABABA" d="M718.5,614.1c-0.1-2.2,0.5-4.2-0.5-6.2c-1.8-0.5-1-0.1-2.8-0.2
		c-0.7-3.5,3.9-3.9,0.6-7.9c-1.1-1.5,5.1-2.7,3.1-5.3c-1.4-1.8,2.8-1.2,0.3-4c-4.5-4.9-17.2,4.9-13.3-0.8c6.3-9,9.9-5.7,12.4-10.5
		c1.8-3.7-6.6-2.4-2-12.5c1.1-2.6-1.7-1.1-2.4-6.6c-0.3,1.4-1.5,0.9-1.9,2.2c-2.5,7.3-2.3,2.8-4.4,2.4c-4.3-0.8-2.5-6.7-4.3-4.8
		c-1.2,1.2-1.6,4.6-1.5-2.4c0-2.3-4.5-0.9-4.8-4.6c-0.7-8.6,0.2-3.9-3.7-5.6c-4.1-1.7-4.9,4-7.1-1.2c-1.6-3.5-6.9-1.7-7-0.9
		c-0.3,2.6,1.5,3.2-0.2,4.9c-4.4,4.6-4.4-3.1-7.5,0.7c-2.5,3.1-4-1.5-2.5,2.2c0.7,1.7-4.3,7.8-4.3,3.3c0-2.9-2.6-8-2.4-1.6
		c0.1,2.5-1.8,2.8-3.4,2.3c-0.8-0.2-1.5-0.7-1.9-1.1c-3.1-3.1-10.8-1.8-11.7,1.8c-1.4,5.1,3.1,4,5.3,6.7c1,1.2,12,2.5,7.3,8.2
		c-1.4,1.7-12.5,2.7-14,1.7c-1.2-0.8-2.8-0.6-4.1-0.6c-2.7,1.8-0.6,7.3-7.5,8.3c-12.7,1.9-8.2-2.8-12.2-2.5
		c-3.5,0.3-1.2,4.9-5.9,0.9c-1.4-1.2-1.2-0.3-2.5-0.3c-0.5,3.5-8,5.2-4.8,7.6c3.1,2.3-1.7,5.8,1,7.1c0.1,0.3,0.1,6.6,5.3,3.9
		c0.7-0.3,1.1-1.2,1.6-1.8c1.9,0,2.5,0.8,4.1-0.2c3.1-1.7,8.2,5.4,4.8,7.9c-1.7,1.4-8.3,12.5-6,15.1c1.7,1.9,3.2,2.2,4.2,4.6
		c1.2,2.8,6.1,2.4,2.4,5.1c-1.1,0.9-0.8,3.2-2,4.5c-0.9,0.9-1.6,1.8-2,2.7c2,9.4,10.7-4.1,13.8-2.9c5,1.7,8.2,5.4,13.4,6.2
		c0,0,4.6,5,5.9-4.3c0.3-2.4,4.5-0.8,7.9-3.7c1.9-1.6,10-1.2,8.3-5.9c-1.6-4.4,5.6-6.3,6.3-1.8c0.2,1.2,2.9,5.8,4,5.3
		c4.1-1.4,0.8-1.9,4.3,1.2c5.2,4.8,9.3-6.5,11.3-7.3c2.4-0.9,5.9,6.2,5.9,2.2c0-1.7,1.8-5.3,3.3-3.9c3.3,3.3,7.1-0.8,4.3-1.7
		c-4.9-1.5,3.4-1.9,5-1.7C714.9,618.8,716.4,615.4,718.5,614.1L718.5,614.1z"/>
	<path id="_40526296" fill="#FDDDB9" stroke="#BABABA" d="M644.9,557.7c0.9-3.6,8.7-4.9,11.7-1.8c0.5,0.5,1.1,0.9,1.9,1.1
		c0-0.2,0.1-0.5,0.1-0.7c1.2-11.8-9.7-7.6-10.1-10.1c-1.2-10.2-3.4-3.5-5.7-7l-3.7-5.1c0,0,6.1-5.1,7-5.6c7.4-4-1.2-4.5,0.6-8.3
		c5.6-11.2,10.3,3.5,14.6-0.9c4.5-4.6,2.3,6.5,11.6,5c2.3-0.3,7.9-9.4,7.9-11.2c0-7.9,3.4-4.9,7.6-4.9c2.2,0,6.3-14,9.9-16.2
		c8-4.8-3.1-5.3-0.8-8.5c1.5-2.2,2.2-2,2.3-1.9c-0.1-0.2-0.5-1.1-0.7-3.7c-2.3-0.8-4.2-1-5.6-0.5c-2.9,1.2-2.5,2.6-5.9-1.1
		c-2.5-2.8-4.8-1.1-5.6-4c-0.6-2.3-5,4-7-3.6c-1.2-4.5-15.6,2.4-16.7-2.5c-1.4-6.2-9,0.8-9.4,0.3c-1.9-1.8-2.2-2.5-2.6-2.3
		c-0.7,0.3-1.9,1.1-4.2,2.6c-3.6,2.2-18.4-3.1-16-6.8c2.6-4.1-1.5-16.1-5.2-16.8c-3.2-0.6-5.3,0.7-8.2-1.2c-0.9-0.7-8-0.1-5.9-6.7
		c0.9-2.6-0.9-3.2-3.1-5c-5-4.3-3.2,1.6-8.5,2.5c-2.2,0.3-0.9,1-1.7,1.7s-7.3,1.4-0.8,8.8c2.3,2.6-0.3,2.8-7,7.7
		c-7.4,5.3,0-7.1-2.9-7.9c-1.1-0.3-1.8,0.1-2,1c-1,3.1,1.9,11.1-4.1,7.1c-4.5-2.9-8.2,2-6,6.3c1.8,3.9-4.9,5.1-7.9,4.6
		c-2.9-0.5-0.1-0.5-3.1,1.9c-0.7,0.6-4.5,1.5-3.4-0.5c0.5-0.8,4.5-2.4-0.8-5.1c-1.7-0.9-6,6.3-5.6,1c0.3-3.2,4.5-1.5-1.9-6.8
		c-4-3.4-0.6,10.3-11.2,0.7c-2.2-2-3.1-3.7-5.9-5.2c-6.7-3.2,0.2-19.1-13.7-19.6c-7-0.2-5.7-4.1-10.9,0.9c-5.3,5.1,5.2,8.5,3.4,10.2
		c0,0-1.2,0-4.2,4c-1.4,1.7-0.3,2.6-2.3,4.1c-4.3,3.2,1.9,8.7,4.8,10c0.5,0.2,0.8,0.5,1.1,0.7c2.3,0.6,6.6,4.3,6.9,7.8
		c0.1,1.7,2.2,2.7,2,8.2c0,1,2.8,4.3,3.5,5.9c0.3,0.8,5.9,7.8,1.1,6.1c-5.3-1.9,0.3,5.8-0.1,7.8c-0.5,1.8,3.4,1.1,1.4,8.5
		c-1.4,5.2,3.2,11.3,0.1,16c-0.1,0.1-0.3,6.7-0.2,14.2c0,9,0.5,19,1.9,20.6c3.4,3.7-1.1-3.4,3.4-6.7c3.3-2.4,5.2-8.2,7.1-0.5
		c1,4.2,8,6,3.7,10.5c-2.4,2.6,3.6,10.1,5.3,8c0.7-0.8,5.1-1.6,5.6-0.9c1,2,6.7,16,6.9,17.7c0.3,2.9,7.1,7,5.7,9.4
		c-3.5,5.7,2.4,3.4,2.5,8c0.2,5.2,8.4,6.5,12.2,3.1c10-8.4,4.8,5.6,8.4,0.9c1.6-1.9,0.8-2.2,3.5-2.7c1.7-0.3,3.2-5.4,1.4-11.4
		c-0.3-1-0.3-10.7,0.1-10.9c2.4-1.1,4.1-0.8,5.8-3.4c2.7-4.3,8.8-4.2,6.3-10.7c-0.7-1.7,2.4-6,4.3-3.7c1.6,1.9,5.1-2.5,2.9-4.3
		c-6.9-5.7,15.2-5,9.7-1.8c-6.3,3.7,4.2,4.8,0.2,11.1c-2.9,4.8,6.3,6.7,11.1,1c3.1-3.6,6.8,0,5.3,3.7c-1.1,3.1,0,3.2,1.8,3.1
		c1.2-0.1,2.8-0.3,4.1,0.6c1.6,1,12.7-0.1,14-1.7c4.8-5.7-6.2-6.8-7.3-8.2C647.9,561.7,643.5,562.8,644.9,557.7L644.9,557.7z"/>
	<path id="_40529848" fill="#FDDDB9" stroke="#BABABA" d="M607.2,594.7c-2.8-1.4,2-4.9-1-7.1c-3.3-2.4,4.3-4.1,4.8-7.6
		c1.4,0.1,1.1-0.8,2.5,0.3c4.6,4,2.4-0.6,5.9-0.9c4.2-0.3-0.3,4.4,12.2,2.5c6.9-1,4.8-6.5,7.5-8.3c-1.7,0.1-2.9,0.1-1.8-3.1
		c1.4-3.7-2.3-7.4-5.3-3.7c-4.6,5.6-13.9,3.6-11.1-1c4-6.5-6.6-7.5-0.2-11.1c5.4-3.2-16.7-3.9-9.7,1.8c2.2,1.8-1.4,6.2-2.9,4.3
		c-1.9-2.4-5,1.9-4.3,3.7c2.5,6.5-3.5,6.3-6.3,10.7c-1.6,2.6-3.4,2.2-5.8,3.4c-0.5,0.2-0.5,9.9-0.1,10.9c1.8,6,0.3,11.1-1.4,11.4
		c-2.7,0.6-1.9,0.8-3.5,2.7c-3.7,4.6,1.5-9.4-8.4-0.9c-4,3.3-12.1,2.2-12.2-3.1c-0.2-4.8-6.1-2.4-2.5-8c1.5-2.4-5.3-6.6-5.7-9.4
		c-0.2-1.7-5.9-15.6-6.9-17.7c-0.3-0.7-4.8,0.1-5.6,0.9c-1.8,2-7.8-5.6-5.3-8c4.3-4.6-2.7-6.3-3.7-10.5c-1.9-7.7-4-1.9-7.1,0.5
		c-4.5,3.3,0,10.3-3.4,6.7c-1.6-1.7-1.9-11.8-1.9-20.6c-4.4,0.1-1.7,6.1-3.7,8c-2.3,2-1.9-2.6-2.3-3.3c-2.5-4.8-3.3,5.4-3.3,5.4
		c-2.5,4.5,2.9,9.3-1.7,10.1c-4.9,0.9-4.6,2.5-4.9-2.2c-0.3-5.3-3.7,0.2-4.9,2.5c0,0.5-0.1,1.4,0.1,4.5c0.1,2.2,1.9,9.9,4,8.7
		c8.6-4.6,3.6,8.2,4.2,10.3c0.8,2.9-0.6,5.3,0,7.7c0.8,2.9-3.6,9.9-2.4,11c3.3,2.9-4.9,2.5-1.8,4.9c5,3.9-3.3,2.5-3.9,4.3
		c-2.5,8.5-3.6-0.7-7.6,6.8c-4,7.6-4.9-0.5-8.7,6.7c-1.8,3.4,2.4,3.7-3.3,6c-1.2,0.6-2.6,6.3-1,6.9c7.8,2.5-2,10.4-2,10.7
		c1,6.2,4.2-2.6,21.4-1c10.7,1,0,1.5,0.8,6.3c0.5,2.8,4.5,2.8,1.9,6.2c-0.9,1.1,3.1,2.4,1.2,5c-5.1,7.4,19.4,4.3,9.6,10.9
		c-4,2.7-0.8,7-4.1,9.7c-11.9,9.6,15.2,5.9,12.8,11.7c-2.4,5.9,4.2,5.8,2.5,7.3c-4.3,4.1,5.7,2.9,7,3.9c4.2,2.7,12.5-8.5,13.8-2.8
		c0.9,3.6-4,13.4,5.2,9.9c0.8-0.3,9.7,6.3,6.1-0.3c-2.5-4.9,4.5-7.7-0.7-14c-3.4-4.1-0.3-14.5,4.1-10.9c1.5,1.1,7.9,1.9,9.4-0.2
		c10.4-16.2,9.1,10.8,19.3-2c5.2-6.6,4.2,5.2,7.4-1.4c2.3-4.9,5.6,10.9,8.3,2.3s6.7,1.4,8.6-0.5c3.7-3.5,7.4-1.8,7.9-6
		c0.5-4.3,5.7-4.3,8.5-6.8c1.5-1.2,3.6,0.9,5.6,3.3c1.9-1.6,5.3-4.2,6.2-6.3c2-0.5,3.3,2,4.4,0.8c6.2-6.7,1-16.3-1.5-14.6
		c-5.6,3.9-6.7,0.1-8,1.2c-1.4,1.1-2.4-0.1-4.3-0.5c-4.2-0.7-0.8-4.9-3.1-6.6c-4.9-3.9-10,1.6-10.8-1.1c-1-3.4-1.8-6-0.5-8.6
		c0.5-0.9,1.1-1.8,2-2.7c1.2-1.2,0.9-3.6,2-4.5c3.6-2.7-1.1-2.3-2.4-5.1c-1.1-2.5-2.6-2.7-4.2-4.6c-2.3-2.6,4.3-13.8,6-15.1
		c3.3-2.5-1.7-9.6-4.8-7.9c-1.7,0.9-2.3,0.2-4.1,0.2c-0.5,0.6-1,1.5-1.6,1.8C607.4,601.3,607.4,595.1,607.2,594.7L607.2,594.7z"/>
	<path id="_40521872" fill="#CC9FC5" stroke="#BABABA" d="M516.9,428.7c14,0.5,7,16.4,13.7,19.6c2.9,1.4,3.7,3.2,5.9,5.2
		c10.7,9.6,7.3-4.1,11.2-0.7c6.3,5.3,2.2,3.6,1.9,6.8c-0.5,5.3,3.9-1.9,5.6-1c5.3,2.7,1.2,4.4,0.8,5.1c-1.1,1.8,2.7,1,3.4,0.5
		c2.9-2.4,0.1-2.4,3.1-1.9c3.1,0.5,9.7-0.8,7.9-4.6c-2-4.3,1.6-9.3,6-6.3c6,3.9,3.2-4.1,4.1-7.1c-2.4-4.4-2.4-2.7-6.8-3.9
		c-1-0.2-8.8-11.7-8.5-12.4c3.6-10,16.2,8.4,21.2,2.5c6.1-7,6.3-1.8-0.3-9.6c-5.4-6.5,9.9-8.3,8.8-11.9c-2.3-7.7,7.6-4,7.6-9.3
		c0-5,3.7-2.4,3.6-6.2c-0.1-3.3,4.2-5,0.8-7.5c-2.8-2.2-1.1-4-3.5-6.2c-3.2-3.2,1.2-2.9-0.5-4.6c-6.7-6.7,5.7-4.9-8.5-14.2
		c-1.6-1,0.6-6.7-2.2-6.6c-3.7,0.1-0.9,7.5-9.6-0.9c-6.5-6.3-4.1-3.5-8.4-6.6c-6.2-4.4-3.3-5-6-5.9c-2.5-0.9-5.8-9.6-5.6-2.8
		c0.1,6.5-17.1-13.6-18.5-15.7c-3.1-4.8-4.5,1.7-9-0.8c-3.3-1.8-3.1,4-5.9,3.3l-7.6-6.1c-15.6-13.8-6.6,4.5-14.3,8.3
		c-3.3,1.6,0.8,8.2-3.5,6.9c-2.8-0.9-3.1,4.5-6.9-0.1c-2.9-3.6-3.6-0.9-7.1-1.6c-13-2.6-3.3-5.9-18.7-3.9c-6,0.8-3.3-10.3-8.3-9.2
		c-3.1,0.7-9.6,0.1-5.2-1.8c5.4-2.4-10.1-0.7-10.3-3.5c-0.3-4.3-6.2-4.4-9.2-7c0,0.1-0.7-0.6-6.7-1.2c-4.4-0.5-36.5,3.4-36.6,6
		c-0.3,3.7,5.2,0.8,2.6,6.7c-3.7,8.4,8.5,12.1,9,19.6c0.2,3.3,6.5,7.4-2.2,6.9c-3.7-0.2-14.4,4.6-4,8.3c2.9,1,3.4,15.5-5.8,8.2
		c-2.9-2.4-6.6-1.9-9.4-4.6c-2.6-2.5,0.6,2.3-7.8,1.9h-0.6c-10.9-0.2,1,4.4,1.1,5.4c0,0-0.7,0.5-0.7,1c0,1.5-1.2,2.6-1.5,4.8
		c-0.3,4.3-8.4,1.5-5.1,9c1.1,2.5-2.3,4.1,1.9,4.6c4.8,0.7-2.6,4.2-1.2,5.7c1.5,1.5,1.6,2.4,1.1,6c-0.5,4.4-7.1,4.5-3.6,8.7
		c2.9,3.5,6.9,16,9.1,17.2c12.8,7.5,12.4-0.2,15.4,0.7c0.9,0.2,4.2,10.1,12.2,13.3c5.7,2.3,2.7,2.4,13.7,5.1c8.6,2.2,9.1,9,12.4,6.5
		c2.7-2.2,6.5,6.1,14,1.9c8.8-4.8,7.4,8.8,14,8.8c6.2,0,1.1,7,1.9,8.3c2.7,4.1,2.4,2.4,7,4.6c3.5,1.6,3.9-0.7,5.9,2.8
		c1.5,2.7,4.4,0,2.3-2.2c-0.9-0.9-0.9-7.1,4.5,0.1c3.7,4.9,5.8,1.2,5.3-3.5c-0.1-0.8,8.4,1,10.3-3.6c2.6-6.1,3.6-6.2,10.9-5.4
		c0.1,0,0.2,0,0.3,0.1c-0.3-0.3-0.7-0.6-1.1-0.7c-2.8-1.1-9.1-6.7-4.8-10c1.9-1.5,0.9-2.3,2.3-4.1c3.1-4,4.2-4,4.2-4
		c1.8-1.8-8.7-5.2-3.4-10.2C511.4,424.7,510,428.5,516.9,428.7L516.9,428.7z M552.6,366.5c7.4-0.7-2.3-2,2.8-4.6l1.6-0.1
		c11.7,0.8,7,6.5,11.8,8.3c2.4,0.9,1.1,1.6,1.2,3.3c0.5,7-5.6,1.5-7.8,1.4C554.9,374,548.3,367,552.6,366.5L552.6,366.5z"/>
	<path id="_40508216" fill="#FBFFD5" stroke="#BABABA" d="M711.8,750.8c-1,3.7,2.9-0.2-5.6,6.1c-7.8,5.9-5,2.5-5.8,10.9
		c-0.3,3.5,1.2,4.4,1,6.8c-0.9,7.8,12.7,6.5,16.2,9.5c6.1,5.3,4.3-6.1,10.2-3.7c2.9,1.2,2.4-4.6,9.1-6.1c0.6-0.1,4.2-14,7.3-16.5
		c2.7-2.3-0.5-3.1,3.5-3.4c2.9-0.2,1.1-6.7-0.2-8.3c-0.1-0.2-0.5,0-0.7,0c-2.4-0.1-4.8-4.5-6.8-1.1c-1.4,2.3-4.9-1.5-8.4,0.3
		c-3.6,1.9-4.8,1.2-4.8,1.2c-2.6,1.8-5.2-1.7-8,1.6C717,750.1,712.8,746.7,711.8,750.8L711.8,750.8z"/>
	<path id="_40506856" fill="#FDDDB9" stroke="#BABABA" d="M699.7,481.5C699.8,481.7,699.8,481.8,699.7,481.5z M704.6,532.9
		c-0.9-0.8-1.1-4.9-2.7-2.4c-1.6,2.5-4.1,0.3-1.2-2.6c1.1-1.2,1.6-6.7,0.6-7.8c-1.8-1.8-3.4-2.9,0-4.3c4.5-1.9,5.1,1.2,7.5-1.9
		c1-1.4,1.7-0.9,2.9-0.1c7.3,4.9,10.8-7.5,15.6-6.2c4.6,1.2,3.3-2.4,4.6-5.6c2-5.1-5-9.6-6.6-9.6c-2.4,0,0.1,0.5-1.5-2.4
		c-0.5-0.8-1-0.9-1.8-1c-1.9-0.1-5.9,1.5-9.4-3.3c-1-1.5,0-1.2-3.2-2c-5.7-1.5,2-1.7-10.2-5.9c0.2,2.6,0.6,3.5,0.7,3.7
		c-0.2-0.1-0.8-0.2-2.3,1.9c-2.2,3.2,9,3.6,0.8,8.5c-3.6,2.2-7.7,16.2-9.9,16.2c-4.2,0-7.6-3.1-7.6,4.9c0,1.8-5.7,10.9-7.9,11.2
		c-9.3,1.5-7-9.6-11.6-5c-4.3,4.5-9.1-10.2-14.6,0.9c-1.8,3.7,6.8,4.3-0.6,8.3c-0.9,0.5-7,5.6-7,5.6l3.7,5.1c2.3,3.6,4.5-3.1,5.7,7
		c0.3,2.5,11.3-1.7,10.1,10.1c0,0.2-0.1,0.5-0.1,0.7c1.6,0.6,3.5,0.2,3.4-2.3c-0.2-6.5,2.4-1.4,2.4,1.6c0,4.5,5.1-1.7,4.3-3.3
		c-1.5-3.6,0,0.9,2.5-2.2c3.1-3.7,2.9,4,7.5-0.7c1.7-1.8-0.1-2.3,0.2-4.9c0.1-0.9,5.6-2.6,7,0.9c2.4,5.2,3.1-0.5,7.1,1.2
		c4,1.7,3.1-3.1,3.7,5.6c0.2,3.6,4.8,2.4,4.8,4.6c-0.1,7,0.2,3.7,1.5,2.4c1.9-2,0,3.9,4.3,4.8c2.2,0.5,1.8,4.9,4.4-2.4
		c0.5-1.4,1.6-0.9,1.9-2.2c0.6-1.9,1.6-1.2,0.2-3.1c-0.7-0.9,0-2.5,0.7-2.8c0.8-0.3-0.9-1.1-0.9-2.2c0.1-3.2,2.6-4.6,0-6.7
		c-0.2-0.1-0.3-0.2-0.6-0.5c-1.8-1.1-0.9-4.6-2.9-5C707.2,539.2,707.1,534.9,704.6,532.9L704.6,532.9z"/>
	<path id="_40513120" fill="#D7F2D8" stroke="#BABABA" d="M843.7,327.1c-6.7,5,4.9,10.2,13.6,8.8c-1.2-4.1,2.2-14.2,5.3-15.1
		c-0.2-0.8,0-1.1-1-1.6c-3.9-1.9,2.9-3.9-2.5-4.8c-3.9-0.7-7.9-8.3-2.8-9.1c2.7-0.5-2.7-4.8-4.8-4.6c-1,0.8-4,3.4-4.1,4.5
		c-0.5,4.5,1.2,2.6,1.4,5c0.3,6.3-3.4,3.4-4.6,3.2c-1.4,0.8-1.2,1.4-1.2,2.2C843,325,847.6,324.3,843.7,327.1L843.7,327.1z"/>
	<path id="_40512392" fill="#D7F2D8" stroke="#BABABA" d="M830.2,316.8c6.9,0.3-0.6,6.2,7.7-0.7c1.4-1.1,3.5-0.7,5.1-0.5
		c0-0.8-0.1-1.5,1.2-2.2c-0.1-0.3-0.2-0.3-0.1-0.8c0.9-3.4-0.9-2-2.2-4c-2.5-4,3.4-3.4,5.6-3.5c0.1-1,3.1-3.7,4.1-4.5
		c-10.4-7.4,9.4-10.7-6.5-10c-5.7,0.2-6.2-12.7-11.4-2c0,0-6.2,5.1-7.8,5.3c-7.1,0.9,3.1,6-0.5,9c-7.3,6.1-7.8,0.9-5.2,8
		c0.9,2.5-3.5,3.5,2,5.7C830.2,319.9,822.9,316.3,830.2,316.8L830.2,316.8z"/>
	<path id="_40509384" fill="#CC9FC5" stroke="#BABABA" d="M638.2,367c-3.4,2,2.5-0.3,3.7,2.3c1.6,3.5,8.7,7,6.9,9.1
		c-5.8,6.2,3.1,4.6,2.7,12.4c0,1.4-8,6.8,0.1,9.7c7.9,2.9-0.3,1.9,5.8,3.7c0.1,0,6.8,6.3,7.7,6.3c4,0.1,1.4-4.8,1.5-5.1
		c1.6-7.4,1.1-4.3,5.4-4c3.7,0.2,7-11.1-2.6-12c-4.8-0.5,1.8-1.6-1.9-5.2c-2.2-2,3.3-3.7,3.5-6c0.9-9-3.9-5,11.1-6.1
		c0.3-4.1-0.3-7.7,2.3-11.2c1.7-2.4,3.1-3.6,4.4-4c-5.9-4.8-0.5,2.9-5.1-4.3c-4.4-6.8-7.1,2.4-13.1-5.8c-0.9-1.1,5.3-11.7,7.1-13.3
		c1.2-1.1,1.9,0.7-2.4-7.9c-1.8-3.6-9.6,3.3-9.6,3.3c-3.5,1.7,1.1-2.2-4.9,6.9c-5,7.6,1.1,7-2.2,11.6c-3.7,5.1,6.7,7.4-13,13.4
		l-10.4,2C637.4,363,641.3,365.1,638.2,367L638.2,367z"/>
	<path id="_40499616" fill="#D7F2D8" stroke="#BABABA" d="M609.4,326.4c3.9,2.3,20.4-11.9,20.6-4.1c0.2,6.2,4.3,3.1,0,10.2
		c-5.4,8.8-12.2,7.4-11,9.9c1.9,4.1-4.3,6.1-2.3,10.2c0.5,0.9,1.8,1.6,2.6,2.3c6.9,5.1,5.9,8.4,15.6,8l10.4-2
		c19.8-6,9.3-8.3,13-13.4c3.3-4.5-2.9-4,2.2-11.6c6-9.1,1.4-5.2,4.9-6.9c0,0,7.8-6.9,9.6-3.3c4.3,8.6,3.6,6.8,2.4,7.9
		c-1.8,1.6-8,12-7.1,13.3c6,8.2,8.7-1,13.1,5.8c4.6,7.3-0.8-0.5,5.1,4.3c1.6-0.5,2.9,0.2,4.8,1.5c8.8,5.8,5.6,0.3,9.3,1.6
		c11.2,3.7,2.6-6,6.1-6.9c2-0.6,3.2-0.2,3.6,0c-0.2-0.1-0.5-0.5-0.8-1c-0.3-0.5-0.7-0.9-1-1.6c-1.6-2.8,8.8-14.3,9.3-14.5
		c6-3.2,2.4-3.2,4.5-5.2c6-5.9,1.9-3.6,5.3-4.1c5.1-0.7,0.2-3.1,0.2-3.4c-0.6-2,5.3,1,5.7,0.9c5.1-0.8,3.4,3.3,5.2,0.2
		c2.6-4.6,7.7-6.8,6.2-1.9c3.4-1.4,1.6,1.7,5.4-2.4c4.5-4.9,8,1.5,9.2-2.4c0.7-2.3,2.4-8.5,3.4-10.7c3.4-7.1,8.5,1.5,12.2-3.6
		c2.8-3.9,8.6,0.8,11.6-2.6c4.1-4.9,7.9-0.3,6.7-10.2l-0.6-1.4l-0.7-0.9l-0.8-1l-0.7-0.9l0.1-1l0.5-0.8l0.2-1l-0.6-1.2l-0.8-1.1
		l0.8-1.1l0.1-2.2l0.7-1.8h2l0.8-1.5l0.5-1.6l0.6-1.4l0.5-1.6l0.7-1.2l1.4-1.5l1.2-1.5l1.2-1.8l1.5-1.4l1.4,0.5l1.2,0.9l1.4,1.5
		l1.1,1.2l-0.7,2.2l-0.7,2v2.2l0.8,2.2h1.8h1.9l1.2-0.8l0.7-1.5l0.9-1.4l1.2-1.1l1.4-0.9l1.5-1.4l1.4-0.9l1.4-1.4l2-0.5l0.7,1l0.6,1
		l1.5,0.8l0.6-0.5l0.7-0.5l0.6-0.8l1-1l1-1l0.3-0.8l0.6-0.2h0.8l1.1,0.9h1.2l1.6,0.2l1.7-0.2l1.5-0.6l0.5-1l0.8-1.2l-0.5-0.7
		l-0.6-0.6l-0.5-0.8l0.8-0.8l0.5-0.9v-0.9l-0.5-0.6l-0.2-0.8l0.1-1l0.7-1.2l0.9-1.1h1.5h2.2l1.6-0.6l0.8-0.7l0.9-0.9l0.8-0.9
		l1.5-0.3h1.6l1.5,0.5l1.1,1.1l0.9,1.1l1,0.9l0.8,1.2l0.1,1.5l0.3,1.8l1.2,1.2l0.5,1.7l1.1,1.2l0.9,1.6l1.8,1.1l-0.2,1.1l-1.2,0.6
		l-1.2,0.9l-0.1,1.6l0.7,1.4l1.8,0.6l1.1,1.2l0.2,1.4v1.6l0.5,1.5h1.5l0.7-0.8l1.9-0.2h1.2l1.2-0.2l0.8-0.6l0.9,0.8h1.8l1.9-0.1h1.1
		l1.4-0.2c4.3-2.5,2.5-3.2,2-4.3c-2.9-8.4,0-10.2-2.5-13c-3.5-4.1,2.9-5.1,4.1-4.1c4.5,3.7,2.4-1.5,8.5,10.7
		c1.8,3.6,4.3-8.6,12.2-11.4c6.3-2.3,7.6-7.3,10.1-6.8c7.9,1.1,2.3-4.8,7-5.4c9.2-1.4,5.4-1.1,4.9-2.4c-1.4-2.8,10.2,2.9,12-2.6
		c4-11.4,6.9,4.4,6.9-12.4c-2.5-0.5-1.7,0.6-2.9-0.3c-1.9-1.5-5.6-0.5-1.2-4.1c1-0.9-1.2-6.1-1.2-6.2c-4-4.8-1.7-6-4-7.4
		c-5.6-3.3,1-7.1-4.2-3.6c-5.8,4-9.6,8.7-10.1,5.3c-0.7-4.6-6.9-10-5.3-12.4c2-2.9-2.2-2.9-0.3-5.8c2.9-4.5-3.1-6.5-3.6-9
		c-0.9-4.2-6.2-0.7-4.3-3.2c2.6-3.3,0.1-7.8,4.9-4.3c7.6,5.4,2.9-2,6.6,1c6.7,5.7,5.7-1.8,4.9-2.9c-3.2-4.5,4-0.1,4-7.3
		c-0.2-0.3-0.2-0.7-0.6-1c-6.9-8.7,5.2-6,6.1-10.3c0.7-3.5-2.9-1.2-3.3-2c-2.6-6.2-3.5,9.6-8,0.1c-2-4.4-9.5-6.6-7.8-10.8
		c1.6-4.1,16.5-16.2,20.6-24.1c4.3-8.4,3.5,6.9,7,5c3.1-1.6-1.9-7.7-0.8-9c2.5-2.7-1.1-11.7,2.6-13c10-3.9,0.1-14.7,3.3-22.4
		c8-19.6,9-19.4,0.2-27.4c-13.6-12.6-6.2-1.5-13.4,1.5c-9.2,3.6-11.2,1.6-15.4,3.9c-9.4,4.9-11-5.9-13.9-12
		c-3.6-7.6,2.9-4.6-1.8-6.8c-2-0.9-5.1-7.3-7.3-3.6c-3.4,5.7-3.3,2.8-7.9,0.8c-12.2-5.4,12.1-11-3.6-20.2c-1.4,0.3-2.5,0.7-2.8,1
		c-4.5,4.6-1-4.9-13.1,11.3c-1.4,1.7-4.5,3.6-1.9,6.5c1.9,2,8.8-6.9,8.6,3.7c-0.1,5,7.4,4.6-4.1,14.4c-4.8,4.1-2.9,12.8-7,17.3
		l-5.1,14.2c0.1,1.5,8.7,0.3-0.9,8.6c-3.2,2.7-4-0.7-10.9,7.3c-8.7,10-21.5-2.3-22,0.3c-2,10.4-10.3,19.9-10.7,30.9
		c-0.2,6.7-8.6,2.8,0.3,14.4c2.9,3.7,4.5-3.9,15.7-4c6.8-0.1,5.1,9.4,11.9-1.1c3.3-5.1,13.8-2.2,17.3,1.4c1.7,1.7,4.8,1.5,5,3.9
		c0.3,2.4,22.1,16.4,11.1,19.8c-8.5,2.6-11.8-4.2-15.7-0.7c-2.8,2.5-3.9-2.4-8,1.1c-8.6,7.3-11-1.2-11.2,5.7c-0.1,5.2-11-0.3-14,7.4
		c-2.4,5.9-2.8-0.1-2.8,9.3c0,2.9-9.2,9.3-18,9.3c-8.6,0-1.9-0.8-12.5,7.8c-6.9,5.6-10.1,8.4-19.6,6.5c-5.4-1.1-6-9-15.3-5.4
		c0,0-8.6,13.3-6.3,17.1c7,12.7,13.4,8.7-2,19c-6,4-0.8-5-12.4,12.7c-3.9,6-8,1.2-13.3,6.1c-5.2,5-25.7,0.7-37.7,2.6
		c-23.2,3.7-31.2,16.8-43.1,14.6c-5.7-1,4.5-5.9-9.1-4.2c-10.3,1.4-16.8-9.4-26.4-9.4c-7.6,0-5.2-6.9-10.7-8.7
		c-23.9-8.2-27.3-1.8-38.1-5.7c-5.4-2-21.9-4.6-34-6.1c1.2,3.5,7.6,21,7,23.3c-1.5,5.8-6.2,1.2-1.1,9c1.8,2.7,8.7,9.9,7.4,12.6
		c-2.6,5.2,4.3,6.5,5.1,4.5c1.8-4.5-6.2-3.3,10.3-5.3c13.1-1.7,21.4,2.6,11.8,11.7c-15.7,15.1-10.5,6.2-2,12.8
		c1.7,1.2,4.8,2.7,5,4.2c0.5,2.2,1,1.4,2.3,2.8c3.1,3.3,7.5,1.8,5.7,8.5c-1.4,5,0.9,1.6,4.4,4.8c10.5,9.4,9.3,8.4,15.2,2.3
		c2-2.2-8.6-5.6,2.8-5.8C601.8,324.4,602.6,322.5,609.4,326.4L609.4,326.4z"/>
	<path id="_40498944" fill="#FBFFD5" stroke="#BABABA" d="M753.2,684.9C746.6,688.9,755.2,683.1,753.2,684.9z M695.2,623.6
		c-2,0.8-6.1,11.9-11.3,7.3c-3.6-3.3-0.3-2.6-4.3-1.2c-1.1,0.3-3.7-4.2-4-5.3c-0.9-4.4-8-2.5-6.3,1.8c1.7,4.6-6.3,4.2-8.3,5.9
		c-3.5,2.9-7.7,1.5-7.9,3.7c-1.2,9.3-5.9,4.3-5.9,4.3c-5.2-0.8-8.5-4.5-13.4-6.2c-3.2-1.1-11.8,12.5-13.8,2.9
		c-1.2,2.7-0.6,5.2,0.5,8.6c0.8,2.7,5.9-2.7,10.8,1.1c2.2,1.7-1.1,5.9,3.1,6.6c1.8,0.3,2.8,1.6,4.3,0.5c1.4-1.1,2.6,2.6,8-1.2
		c2.5-1.7,7.6,7.9,1.5,14.6c-1.1,1.2-2.4-1.2-4.4-0.8c-0.9,2.2-4.4,4.8-6.2,6.3c1.6,1.8,3.1,3.7,4.1,4.3c7.1,4,0.9,1.9,7.4,1.4
		c5.9-0.5,0.6,4.4,8.6,1.2c1.5-0.6,9.7,2.4,2.2,8.3c-4.6,3.6,0.8,5.7,1.4,10.9c0.3,2.7,4.3,2.3,5.7,3.9c0.3,0.3,1.9,6.2,11.9,6.6
		c3.3,0.1,4.3-1.5,7,0.6c5.8,4.4,9-2.6,10,0.5c1.1,3.4,4.1-0.9,2.2-3.3c-2.3-2.9,2.6-3.4,2.5-2.2c-0.2,3.1-0.2,0.9,1.9,4
		c2.3,3.2,2.6-5.1,3.3-0.7c0.5,3.2,8.7,0.9,5.2,4.9c-2.4,2.6,7.9,1,9.2-0.8c1.1-1.8-2-2.7,0.1-4.8c1.6-1.4-1.2,1.9,1.1,2.9
		c2,0.9,0.3,2.9,3.7,3.2c-1.1-5.1,2.5-1.5,3.3-7.5c0.5-3.4,10.7,1.5,8.6-5c-2-6.5,1.9,0.1,6.9-4.6c3.7-3.5-1.2-0.7,0.3-6
		c0.6-1.9,5.3-1.7,6.9-2.8c0.6-0.5,1-0.8,1.5-1.1c0.7-0.6,1.1-0.9,1.4-1.1l1-0.7c6.9-4.2-1.5-13.6,6.7-19.3c2.3-1.6-0.6-1.1,2.4-3.4
		c9.1-7.1-0.2-7.4,4-9.5c5.7-2.9-0.9-7.4,0.8-11.2c-7.8-1.9-3.5,0-7.1,1.8c-4.8,2.3-2.3-5.3-2.8-7.3c-2.2-7.6-7.7,1.2-9.1,0.9
		c-4.6-1.5,5.7-9.7,5.7-12.4c0-3.6,4-9.9,0.9-8.5c-5.4,2.5-1-5.6-2.2-7.5c-2-3.4-7.6,0.2-10.2-0.7c-5.1-2-8.3,12.2-12.2,5
		c-2-3.6-4.9-1.8-5.6,1.8c-1,6.1-2.5,1-2.6,0.9c-1.7-1.7-3.2-1.6-4.3-0.8c-2.2,1.4-3.6,4.6-4.9,4.5c-1.7-0.2-9.9,0.2-5,1.7
		c2.8,0.9-1.1,5-4.3,1.7c-1.5-1.5-3.3,2-3.3,3.9C700.9,629.9,697.5,622.6,695.2,623.6L695.2,623.6z"/>
	<path id="_40446064" fill="#CC9FC5" stroke="#BABABA" d="M438.6,306.7c0-0.1-0.6-1,2.9-3.6c5.7-4.2,2.3-9.1,4.4-15
		c3.7-10,0-14.4,9.9-10.2c3.5,1.5,12.2-7.9,14.4-10.5c4.2-5,16.3-15.5,23.1-11c2.9,2,2.5-1.9,9-2c7.6-0.1,6.1-3.3,5.6-5.4
		c-1.7-6.9-1.5-6.5,4.1-11.1c-1-0.8-0.2-3.5-5.6-12.7c-1.9-3.4-1.8-16-4.5-17.4c-2.6-1.5-4.1-1.1-0.2-4.3c2.3-1.9-5.6-0.6-8.5-4
		c-23-27.3-28.3-15.7-39.5-23.1c-2.5-1.7-5.6-0.6-7.8-2.5c-2.6-2.4-16-2.7-9.5-16.1c2.6-5.4,4.9-0.2,5.7-10.3
		c0.7-8,6.5-4.2-0.8-17.2c-2.3-4.1-1-19.7-8-19.8c-3.7-0.1-2.4-4.8-9.3-5.2c-5.4-0.3-7.1-10.1-11.2-13.3c-7.1-5.4,1.6-4.3-4.1-7.5
		c-3.5-1.9,9.2-10.4-5.2-8.7c-2.5,0.3-7.6-7.3-9.3,1.2c-2.4,11.9-15.6,5.6-20.1,11.1c-6,7.6-1,28.6-12.4,23.9
		c-3.7-1.5-5.3,4.4-7.7-0.1c-2.8-5.4-5.7,2.7-19-10c-3.9-3.6-5.8,0.3-13.1,9.6c-1.9,2.4-11.6,14.8-11.6,16.8
		c-0.1,7.8,5.1,9.7,1.7,10.7c-5.8,1.7-10-6.7-10.9-6.7c-3.5,0.2-7.6,2.4-18.2,0.3c-1.1-0.2-12.4-1.5-12.6-0.1
		c-0.9,5.3,8,2.8,3.9,12.9c-1.8,4.4,1.4,10.7-1.1,14.7c-1.4,2.3,4.9,14.5-3.5,12.9c-3.5-0.7-4.3,2.5-2.5,4.2
		c1.9,1.8-6.9-0.9-7.3,7.6c-0.3,8-3.4,6-10.1,8.6c-1.6,0.7-16,3.1-20.5,4.3c-7.1,1.9-6.9-3.5-8.3,0c-1.7,4.6-4.6,0.8-6.8,2.9
		c-6.1,5.9-12.5-9.4-19.8,0c-10.5,13.4-8.4,3.3-15.7,6c-3.5,1.4-2.9-4.3-2.2-5.8c3.4-6.1-7.3,2.3-11-2.8c-2.7-3.6-1.5,1.5-10.9,4
		c-1.9,0.5-7.7-6.6-13.3,6.2c-2.4,5.4-8-1.2-7.6,6.7c0.2,3.5,2.8,4.5-0.7,7.5c-3.2,2.7,0.2,9.5,4,8c3.2-1.2,12.1,3.7,10.4,7.6
		c-4.4,10.3-0.7,11.2-4,15.2c-3.2,4,6.3,10.4-4,9.4c-1.8-0.2-10.1-6.2-8,0.9c0.6,1.9,3.9,0.2,5,2.3c2,3.6,5.8,1.9,9.6,9.2
		c1.5,2.7,5.6,1.1,5.7,8.6c0.1,4.4-5.4,6.8-2.4,11.1c3.5,4.9-4.6,3.4,6.8,4.8c3.6,0.5-4.3,1,3.5,6.9c5.2,4,9.3,8,16.2,9.3
		c6.2,1.1-2.6,3.6-0.6,6.2c4.6,5.9-3.9,11.4,3.2,14.4c1.8,0.8,6.2,5.3,5.3,8.7c27.9,1.1,13.5,1.9,22.3-7.4c2.4-2.5,5.6-2.8,7.8-5.8
		c2.9-3.9,7.5,2.7,12.6,3.6c12.1,2.2,6.7,9,22.1,1.7c4-1.8,11.2-1.4,11.9,4c0.8,6.7,18.9,9.9,22.8,8.4c7.5-2.9,15.1-3.1,19.6-1.5
		c6.3,2.3,12,2.3,14.5-2.5c2.3-4.5,14.6-1.8,25.9-1.6c21.4,0.3,14.8,4.3,21.3,5.9c5.1,1.2,8.8,5.1,12.5,8.6h0.6
		c8.4,0.3,5.3-4.4,7.8-1.9c2.8,2.7,6.5,2.2,9.4,4.6c9.2,7.4,8.6-7.1,5.8-8.2c-10.4-3.6,0.2-8.5,4-8.3c8.6,0.5,2.4-3.6,2.2-6.9
		c-0.5-7.4-12.7-11.2-9-19.6c2.6-5.8-2.9-2.9-2.6-6.7c0.2-2.6,32.3-6.6,36.6-6C438,306.1,438.6,306.8,438.6,306.7L438.6,306.7z"/>
	<path id="_40437568" fill="#FDDDB9" stroke="#BABABA" d="M373,383.4c-4.2-0.7-0.8-2.2-1.9-4.6c-3.3-7.5,4.8-4.6,5.1-9
		c0.1-2.2,1.5-3.3,1.5-4.8c0-0.6,0.7-1,0.7-1c-0.1-1-12-5.8-1.1-5.4c-3.7-3.5-7.5-7.5-12.5-8.6c-6.5-1.6,0-5.4-21.3-5.9
		c-11.3-0.2-23.7-2.9-25.9,1.6c-2.4,4.9-8.2,4.8-14.5,2.5c-4.4-1.6-12-1.5-19.6,1.5c-3.9,1.5-22-1.7-22.8-8.4
		c-0.7-5.3-7.9-5.9-11.9-4c-15.4,7.3-10.1,0.5-22.1-1.7c-5-0.9-9.6-7.5-12.6-3.6c-2.3,3.1-5.4,3.3-7.8,5.8
		c-8.8,9.3,5.6,8.5-22.3,7.4c-0.2,0.8-0.7,1.5-1.4,2c-4.6,3.5-4-1.4-4.5,6.6c-0.1,1.7-4.1,2.9-2.3,8.7c1.1,3.6,5.9,5.9,3.3,17.4
		c-1.2,5.7-10.7,8.8-10.1-0.7c0.2-3.7-6.5-1.8-6.1,1.8c0.6,5.9-5.1-0.3,0.3,10.4c1.2,2.5-4,2.4-0.7,5.8c2.7,2.8-2.6,2.9-1.4,5.4
		c1.7,3.5-2.3-0.5,1.6,6c1,1.8,1.2,11.3,5.3,6.5c1.1-1.4,3.4,2,5,2.9c5.4,3.2,2.9,8.3,13.7,15.6c2.8,1.9,6.8,6.8,6.9,10.3
		c0.2,7.3,8.5-7,12.2-3.9c0.5,0.3,0.7,0.9,1.1,1.2c2.9,2.9,6.2,2.5,6.2,7.5c0,0,6.3,7.4,9.1,12.1c3.2,5.7,6.3,0.9,9,10.7
		c2.9,11.2,5.4-0.6,12.4,6.1c2.9,2.8-2,7.8,1.2,8.8c3.6,1.1,6.5,11.2,12.4,8c5.3-2.9-0.2,6.3,0.2,7.1c1.4,2.3,2.8,0.2,7.7,3.3
		c2.2,1.4,2.9-4.4,5.7,7.8c1.5,6.6,5.1-5.1,5.7-0.1c0.9,8.5,6,0.1,9.2,2.8c16.5,13.9,7.8,3.5,15.2,8.6c3.2,2.2,3.7-2.7,6.2-0.7
		c4.3,3.5,14.2-2.3,16-0.1c7,8.3-8,11.4,1.2,18.8c2.7,2.2,5.2-0.2,3.2-3.4c-1.2-1.9,13.5-16.1,19.7-12.7c3.1,1.7,6.6,1.4,9,4.3
		c1.8,2.3,2.8-0.2,7.7,4.5c6.2,6,8.2-5.1,12.7,4.8c1.7,3.6-4,8.4,4.1,9.2c7.3,0.7-0.3,7,1.2,10.1c3.5,6.9-2.8,1.8,19.7,6.6
		c19.3,4.1,12.5-8,29.9-10.5c24.6-3.5,15.1-14.2,30.1-9c3.7,1.2,5.9-0.7,13.4,8c1.5,1.7,4.3,1.9,5.6,3.9c1.5,2.2,2.3,0.2,4.9-0.8
		c7.4-2.8-3.2-2.4,3.9-8.5c2.9-2.5,5-10.5,6.8-0.9c0.2,1.4,1.9-0.9,3.9,2.2c2.3,3.6,2.6,3.1,2.6,3.6c1.1-2.2,4.5-7.8,4.9-2.5
		c0.3,4.6,0.1,3.1,4.9,2.2c4.8-0.9-0.8-5.6,1.7-10.1c0,0,0.7-10.1,3.3-5.4c0.3,0.7,0.1,5.3,2.3,3.3c2-1.9-0.7-7.9,3.7-8
		c0-7.5,0.2-14,0.2-14.2c3.2-4.8-1.5-10.8-0.1-16c1.9-7.4-1.8-6.7-1.4-8.5c0.5-2-5.2-9.7,0.1-7.8c4.8,1.8-0.8-5.3-1.1-6.1
		c-0.7-1.6-3.6-4.9-3.5-5.9c0.1-5.4-1.9-6.5-2-8.2c-0.3-3.5-4.6-7.3-6.9-7.8c-0.1,0-0.2-0.1-0.3-0.1c-7.1-0.8-8.2-0.7-10.9,5.4
		c-1.9,4.6-10.4,2.7-10.3,3.6c0.3,4.8-1.6,8.4-5.3,3.5c-5.6-7.3-5.4-1-4.5-0.1c2.2,2.2-0.8,4.9-2.3,2.2c-1.9-3.6-2.4-1.2-5.9-2.8
		c-4.6-2.2-4.4-0.6-7-4.6c-0.8-1.2,4.3-8.3-1.9-8.3c-6.7,0-5.2-13.6-14-8.8c-7.7,4.1-11.3-4.1-14-1.9c-3.3,2.5-3.7-4.3-12.4-6.5
		c-11-2.6-8-2.8-13.7-5.1c-8-3.2-11.3-13-12.2-13.3c-3.1-0.9-2.7,6.8-15.4-0.7c-2.2-1.2-6.1-13.7-9.1-17.2c-3.4-4.2,3.2-4.3,3.6-8.7
		c0.3-3.6,0.2-4.5-1.1-6C370.4,387.6,377.8,384.1,373,383.4L373,383.4L373,383.4z"/>
	<g id="g29951" transform="translate(-2.22557e-4,0)">
		<path id="_40506880" fill="#F8E6EE" stroke="#BABABA" d="M946.1,494.7c7.3-1.7,0.1-10.2-3.2-11.4c-2.7-1-3.6-1.8-4.1-2.5l-1.7,1.1
			c-4.6,1.7-0.9,5.8-5.6,8.4l-0.1,1.7c4,0.7,0.9,1.8,2.7,3.7l1.6,0.2c0.5,0.9,0.6,1,2,0.9c0.8,1.2,0.8,1,2.4,1.2
			C941.9,496.5,943.5,495.3,946.1,494.7L946.1,494.7z M939.5,478.3c1.2,0.8,5.6,2.9,7.7,2.8c0.9,0,2.8-0.6,2.6-1.7
			c-0.6-2.9-2.2-0.5-7.4-3.2c-8.5-4.5-9.1-0.1-5.6,1.1C938,477.7,936.6,476.6,939.5,478.3L939.5,478.3z"/>
		<path id="_39191984" fill="#F8E6EE" stroke="#BABABA" d="M945.5,481.9c-4.6-0.3,2.2,2.8,3.7,1.6
			C950.7,482.5,946.2,482,945.5,481.9z"/>
	</g>
	<path id="_40547808" fill="#F8E6EE" stroke="#BABABA" d="M864,586.2c-4.3,2.5-9.9,1.7-5.1,12.4c1.7,3.7-6.5,1.5-2.4,7.4
		c2.7,4.1-5-0.5-7.7,13.8c-1.7,8.7-1.9,3.3-2.3,14.5c3.5-0.8,9.9,2,9.6,0.1c-0.5-3.5,2.8,5.8,4.6,4.5c5-3.5,2.7,1.2,6.8,6.1
		c4.5,5.4-2.3,3.5,5.4,15.4c1.2-0.5,2.5-1,3.2-2.8c0.6-1.5,2.4-1.4,3.3-2.8c0.6-0.9,15.9-10.1,12.5-12.6c-1.8-1.2-4.4-1.1-1.5-4
		c1.4-1.4,3.9-1.4,5.6-2.4c3.4-1.9,4.4,5.1,7-2c1-2.7-2.2-2.8,1.2-4.2c6-2.4-2.6-5.6,5.7-7.9c5.3-1.5-3.6-4.4,2.3-6.6
		c1.7-0.6,12.9,1.7,5.3-1.8c-5.8-2.7,1.6-2,0.9-4.9c-1.1-5.2,2.9-0.6-1.6-6.3c-1.9-2.4,5.1-2.6,0.6-7c-3.5-3.5,8.4-0.9-0.5-4.5
		c-4.4-1.8-0.9-6,2.5-4c5.4,3.3,6.8-5.7,10-7.8c3.5-2.4-0.1-0.9-2.2-2.9l1,0.3c1.6,0.5,2.8,0.5,3.7,0.2c-1.9-1.9-3.6-4.6-6.8-3.4
		c-8.2,3.2-5.6,2.6-10-3.9c-2.2-3.3-5.9,7-9.4,4.5c-1.9-1.4-5.1,1.9-5.1-1.2c0-4.1-3.3-7-3.4-10.8c-0.1-9.2-3.6-3.3-5.7-5.2
		c-6.3,3.6,0.8,4.8-5,5.2c-1.7,0.1,0,1.6-4.1,2.4c-4.9,0.9-3.4,6.7-7.6,1.8c-2.4-2.8-6.2,5.8-7.9,6.3c-3.1,1-0.9,0.6-0.1,6.5
		C867.2,578.4,869.3,583.2,864,586.2L864,586.2z M876.6,667.6C875.1,670.7,879.2,668.3,876.6,667.6z M878.9,665.4
		c-4.2,2,2.5,2.6,0.8,0.5C879.6,665.6,879.3,665.2,878.9,665.4z M872.7,666.2c0.9-0.7,4.9-2.9-0.7-1.9l-1.5,0.2
		C868.9,665.8,872,666,872.7,666.2L872.7,666.2z M921.5,591.2c1.4,3.2,6.5-4.2,5.7-4.9c-0.2-0.2-1.1-0.5-1.1-0.5
		C925.1,586.7,922,590.1,921.5,591.2L921.5,591.2z M920,596.8c0.2,2,1.2-0.2,2-0.6c1.9-0.8,0.6-1.2-0.7-2
		C920.3,595.1,919.8,595.3,920,596.8L920,596.8z M919.5,621.6c0-0.1-3.5-2.6-3.2-1C916.7,621.8,919.2,624.3,919.5,621.6z
		 M920.4,609.7c-0.3,1.9,1,2.5,1,3.7c0,1.4-0.7,1.2,0.2,2.5c1.5,1.9,3.2-2.7,2.5-4.1c-0.2-0.6-1.8-2.6-2.5-2.6
		C921.3,609.2,920.9,609.6,920.4,609.7L920.4,609.7z"/>
	<path id="_38569272" fill="#EECC77" stroke="#BABABA" d="M882,656.5c0,0-1.8,0.8-0.9,1.5c2.3,1.8,2.9-5.7,1.4-4.1
		C882.1,654.2,882.5,655.7,882,656.5L882,656.5z"/>
	<path id="_40542808" fill="#EECC77" stroke="#BABABA" d="M742.6,736.7c-0.8,1.4-2.7,0.2-3.1,1.7c1,0.6,4.3,0.9,3.4-0.9L742.6,736.7
		L742.6,736.7z"/>
	<path id="_40540776" fill="#EECC77" stroke="#BABABA" d="M739,724.7c0,0.8,1.1,2.4,1.4,2.8c2.3-1.6-0.7-2.4-0.2-4.6
		c0.3-1.5,2.6-0.8,1.5-2.8c-0.1-0.2-0.5,0-0.7,0.1c-1,0.5-1.7,1.6-2.7,2c-0.9,0.5-1.1-0.2-1.8,0.7C737.1,724.5,739,723.9,739,724.7
		L739,724.7z"/>
	<path id="_40524296" fill="#FBFFD5" stroke="#BABABA" d="M829.9,639.8c-2,0.1-1.5,2.7-7.3,3.2c-1.8,0.1-8.8,2.3-9.6-1.1
		c0-0.1,3.6-3.5,4.1-5c2-6.1,6.1-3.6,5.7-8v-1.1c-6-5.6-3.5,0-12.7,0.2c-0.8,0-1.5-1.5-2-3.3c-0.8,0.2-1.6,0.3-2.3,0.9
		c-6.8,5.7-11.2-4.6-14.8-0.5c-1,1.2-6.3,3.7-3.6,4.2c2.3,0.3,1.8,5.7,0.3,6.8c-4.5,3.5-3.5-6.7-14.7-4.3c-2.5,0.6-0.3,10.3-5,9.2
		c-1.7,3.9,4.9,8.3-0.8,11.2c-4.3,2.2,5.1,2.4-4,9.5c-2.9,2.3-0.1,1.8-2.4,3.4c-8,5.7,0.2,15.1-6.7,19.3c-0.3,0.2-0.7,0.5-1,0.7
		c-0.5,0.3-1.2,1-2.8,2.3c-1.6,1.1-6.3,1-6.9,2.8c-1.6,5.3,3.3,2.5-0.3,6c-5,4.8-9-1.8-6.9,4.6c2.2,6.6-8.2,1.6-8.6,5
		c-0.8,6-4.3,2.4-3.3,7.5c5,0.3,0,2.7-0.3,4.3c-0.5,2-1.8,2.9-1.5,4.9c0.7,4.2-2.5,1.6,1,7.8c4.4,7.9,4,3.6,5,6.3
		c1.4,3.4,1.8,5.2,6.6,3.6c7.6-2.5,1-6.9,0.5-10.4c-0.7-4.6-6.9-3.4-0.1-7.8c2.2-1.4,2.7-11.1,4.2-5c1,4.3,3.1-1.1,5.3-1.6
		c3.5-0.7,5.9-2.8,9.7-1.8c2.3,0.7,1.2-1.5,7.3-1.5c5.6,0,0-8.4,3.4-4.5c1.7,1.9,5.1,1.8,3.9-1.5c-1.1-2.8,0.9,0.3,2.5,0.1
		c3.5-0.7,1.2,1.1,4,1.2c2.9,0.2,4.3-8.5,4.3-4.2c0,8.3,5.8-2,7.5-1.1c8.6,5,2.8-6.3,3.9-10.1c0.6-2,0.2,11,4.6,6.6
		c2.4-2.4,4-2.6,5-2.7c0.6-0.1,0.9-0.2,1.1-0.7c0.5-0.8,0.5-2.5,0.5-6.7c-0.1-4.5-6.3-9.1,2.7-4.9c4.1,1.9,0.5,4.5,4,2.6
		c1.2-0.7,1.6,0.2,3.3,0.6c0.8,0.1,1.9,0.1,3.5-0.3c0.3-0.1,0.7-0.1,1-0.2c3.6-1.1,7.6,8,4.9,0.5c-1.5-4.1,4.2-5.9,4.6-2.5
		c0.2,1.2,2.9,2.7,3.2,2.6c1.4-1,2.8-10.3,8.8-4c4.4,4.6,4-7.6,7.8-3.3c2.6,2.9,7.5-1.9,13.7-2.6c4.3-0.6,0.7-4.9,4.6-6.3
		c8-2.9-4.4-2.4-2.9-3.9c1.9-1.9,6.7,1.9,7.3-2.5c0.5-2.9,2.3-3.3,4.1-4c-7.7-11.9-0.9-10-5.4-15.4c-4.1-4.9-1.8-9.7-6.8-6.1
		c-1.8,1.4-5.1-8-4.6-4.5c0.2,1.8-6.1-1-9.6-0.1c-1.7,0.5-2.8,1.7-2,4.9c0.1,0.6,2.5,4-0.3,3.9c-0.9,0-5.6-4.5-6.2-5.3
		C835.8,637.6,834.1,639.6,829.9,639.8L829.9,639.8z"/>
	<path id="_39192064" fill="#EECC77" stroke="#BABABA" d="M878.6,657.2c-2.7,2,1.7,5.6,1,0.7C879.6,657.2,879.6,656.4,878.6,657.2z"
		/>
	<path id="_40364056" fill="#FBFFD5" stroke="#BABABA" d="M795,701.2c-0.7,0.7-3.7,2.4,0.3,2.2c1.5-1.9,0.3-2.8,0-2.9
		C795,700.3,795.2,701,795,701.2L795,701.2z M797.5,699.2c-2.7,0.8,1.6,1.2,1.9,1C799.9,700,800.1,698.4,797.5,699.2z M807.1,701.4
		c0.3-0.2-3.2-4.4-5.1-6.1c-0.2,0.5-0.7,0.6-1.1,0.7c1.5,2.5,1.7,0.8,2.6,1.9C805.4,700.4,803.1,703.7,807.1,701.4L807.1,701.4z
		 M786.4,710.1c-0.5,2.7,2.9-3.6,1.4-3.7c-0.3,0-1.8,0.6-1.8,0.6c-1.5,1.8-3.2-0.5-3.9,2C783.8,711.1,784.9,708,786.4,710.1
		L786.4,710.1z"/>
	<g id="g29933" transform="translate(-731.572,0)">
		<g id="g29928" transform="translate(731.572,0)">
			<path id="_40546000" fill="#FBFFD5" stroke="#BABABA" d="M818.8,698.2c-0.8-0.2-1.4-0.5-2.2-0.1c-0.3,0.2-0.7,0.5-0.9,0.8
				C816.9,699.2,818.9,700,818.8,698.2L818.8,698.2z"/>
			<path id="_40545208" fill="#FBFFD5" stroke="#BABABA" d="M816.3,699.3H814C813.2,703.8,817,699.5,816.3,699.3z"/>
			<path id="_40544016" fill="#FBFFD5" stroke="#BABABA" d="M812.4,703.5c1.6-1.5,0.2-2.7-0.2-2
				C811.8,702.4,812.1,702.8,812.4,703.5z"/>
		</g>
		<path id="_39122872" fill="#FBFFD5" stroke="#BABABA" d="M1549.3,691c-7.8,3.7-1.8,5.4-0.9,3.6c0.5-1,1-1.2,1.4-2.3
			C1549.5,692.1,1549.7,691.6,1549.3,691L1549.3,691z M1542.3,693.2c-1.2,0.5-5.4,2.3-1.4,2.3
			C1543.1,695.5,1544.2,694.4,1542.3,693.2z M1543.9,687c-0.1,0.7-4.1,10,4.4,3.6c3.4-2.5-0.2-0.3-0.6-3.2c0-0.3-0.1-0.6-0.2-0.8
			C1545.9,687.1,1544.7,687.1,1543.9,687L1543.9,687z"/>
	</g>
	<g id="g64">
		<path id="_40529352" fill="#CC9FC5" stroke="#BABABA" d="M570.1,373.3c-0.1-1.7,1.1-2.4-1.2-3.3c-4.8-1.8-0.1-7.5-11.8-8.3
			l-1.6,0.1c-5.1,2.6,4.5,4-2.8,4.6c-4.2,0.5,2.3,7.5,9.6,8C564.4,374.8,570.4,380.4,570.1,373.3L570.1,373.3z"/>
		<path id="_40521080" fill="#F8E6EE" stroke="#BABABA" d="M881.4,452.9C881.8,452.1,883.3,453.7,881.4,452.9z M884.2,447.6
			c2.8,2.3-0.1-0.8-3.1,1.5c-1.4,1.1-6.2-0.2-3.3,1.8c0.2-0.1,0.3-0.2,0.5-0.2c0.1,0.1,0.2,0.3,0.3,0.7c0.5,0.3,1.1,0.7,1.9,1.1
			c0.3,0.2,0.7,0.3,0.9,0.5c-0.1,0.3,0,0.9,0.3,2c0.8,2.3,1.9-1,3.2-0.9c0,0,1.4,2.7,4.4-4.4c1.7-3.9-3.1-2.7-4.4-6.9
			c-0.2-0.7-0.6-1.1-1.2-1.5C879.9,439.7,882.6,446.3,884.2,447.6L884.2,447.6z"/>
		<path id="_40431192" fill="#F8E6EE" stroke="#BABABA" d="M847.3,407.7c-3.7,3.1-1.4,3.4,2.2,7.4c1.1,0.9,1.7,1.2,2.2,1.5
			c1.4,0.6,0-1.8,3.9,1.5l-2.8-3.2C847.7,409.7,849,406.3,847.3,407.7L847.3,407.7z M852.3,416.8c0.1,0,4,5.8,4.2,6.6
			c0.6,2.2,3.9,1.6,2.2-2.5c-1.4-1.4-2.5-2.3-3.3-2.9c-3.9-3.3-2.4-0.9-3.9-1.5L852.3,416.8L852.3,416.8z"/>
	</g>
	<g id="g2506" transform="translate(-706.114,12.7291)">
		<g id="g2508" transform="translate(731.572,0)">
			<path id="path2514" fill="#EECC77" stroke="#BABABA" d="M826.5,710.5c1.6-1.5,0.2-2.7-0.2-2C825.7,709.3,826,709.8,826.5,710.5z"
				/>
		</g>
		<path id="path2516" fill="#EECC77" stroke="#BABABA" d="M1512.8,681.7c-5.7,2.3-1,4.3-0.6,3.1c0.3-0.7,0.3,0.9-0.2-1.2
			C1511.8,683.2,1513.1,682.1,1512.8,681.7L1512.8,681.7z M1507.1,684.9c-1.1,0.6-2.6-0.1,0.1-0.1
			C1508.7,684.8,1508.2,685.7,1507.1,684.9z M1509.1,678.9c-0.1,0.5-2.7,7,2.9,2.6c2.3-1.8-1.5,1.6-1.8-0.3c0-0.2-0.9-1.5-0.3,0.1
			C1508.9,681.4,1509.7,678.9,1509.1,678.9L1509.1,678.9z"/>
	</g>
</g>
<g id="layer1" transform="matrix(7.16973e-2,0,0,7.19374e-2,417.38,371.111)">
	<g id="g2869" transform="matrix(1.3779,0,0,1.28047,999.359,-7.1216)">
		<g id="g5774" transform="translate(-927.807,-248.547)">
			<g id="g76">
				<path id="taiwan_area" fill="#C9C9C9" stroke="#BABABA" d="M5736.2,2881.4l-0.9,0.1l-0.7,0.8l-0.3,1.1h-4.3l-1.4-1.5l-0.8,0.6
					v1.4l-0.8,0.6l-3.6,0.6l-0.5-1.1l-0.5,0.5l-0.2,1.2l-1,0.8l-2.4,0.6l-1,0.7l-1.1,0.3l-2.5,5.2l-0.5,0.1l-2.6-0.3l-0.9,0.7
					l-0.1,1.2l-0.7,0.8l-0.7,2l-0.6,0.8l-0.2,1.4l-0.6,0.9l-1.7,1.2l-0.7,0.8l-0.2,1.4l-1.5,2.7l-1.4,0.3l-0.8-0.1l0.2,0.8l2.4,2.3
					l1.4,0.1l2.5,1.1l1,1.8l1,0.7l0.7,0.9l1.5,3.2l0.2,5.3l-0.6,0.6l-0.2-1.1l-0.6-1.1l-0.2-1.1l-1.4-1.9l-0.1-1.2l-0.5-1.2
					l-3.5-3.2l-2.2-1.1h-1.4l-0.8,0.7l-0.5,1.7l-2.6,2.5l-2.3,0.9l-0.9,0.7l-1,0.2l-2.9,1.9l-3.6,1.1l-0.9,0.6l-8.5,0.1l-1.7,1.6
					l-1.1,0.5l-1.4-0.1l-1.8-1.4l-1.1-0.3l-2.5,0.6l-0.7,0.7h-1.4l-5.9,2.4l-1.5,0.1l-1.1,0.7l-2.6,2.6l-2.5,1.1l-1.1,0.9l-8.6,2.3
					h-1.4l-2,1l-1,0.9l-1.2,0.3l-1.1,0.7l-0.9,1l-1.8,1.1l-1,0.3l-0.8,0.8l-1.1,0.2l-2.8,1.2l-3.3,2.8l-1.7,2.5l-0.8,0.6l-0.7,2
					l-2.2,2.7l-0.1,1.2l0.7,0.9v2.6l-1.2,1.4l-0.9,0.6l-0.9,0.9l-0.5,1l-2.2,2.8l-0.9,0.7l-4.2,6.1l0.2,1.4l0.6,1.1l-4,4.9l-0.5,2.4
					l-0.7,0.6l-0.3,1.2l-1.5,1.8l-0.3,1l-0.8,0.7l-1.1,0.5l-3.6,4.9l-0.9,0.8l0.5,2.2l-0.2,0.7l0.3,0.3l1.4,0.1l0.2,1.1l-0.6,1.1
					l-0.2,2.5l-0.6,0.8l-0.1,2.7l-1.4,1.8l-0.3,1.1l1,0.8l-0.6,0.7l-0.5,1.2l-1.6,1.5l-4,1.7l-0.6,0.9l-0.9,0.8l-0.9,1.9v1.4l-0.2,1
					l-0.6,0.8l-0.3,1.1l-3.9,3.3l-1.1,0.6l-0.7,0.8l-0.1,1.2l1.2,0.2l0.6,1.1l1,0.5l1.4,0.2l0.6,0.7l-0.9,0.6l-1.6-0.3l-0.7-0.7
					l-2.7-1h-1.7l-3.1,1.5l-4,0.2l-1.4,1.7l-1.1,0.2l-2.2,3.7l-0.5,2.3l-0.7,0.6l1,0.8l1.1,0.6l0.1,1.1l-0.7-0.2h-1l-1.9,1.1
					l0.2,1.5l-0.2,1.1l-0.8-1.1l-1.9-1.6l-2.3,0.6l-0.8,0.9l-0.1,0.6l-1.6,2l-6.9,20.2l-0.8,1l-0.9,2.3l-3.6,4.8l-0.5,1l-2.2,2.8
					l-2.7,2.3l-2.3,0.8l-0.2,1.6l-6.5,9l-1.4,3.3l0.2,2.7l-0.1,0.3l-0.9,1.1l-0.3,1l-1.9,0.9l-0.7,1.2l-3.3,2.3l0.1,1l0.3,0.8
					l0.1,1.5l-0.6,0.7l-1.7-0.6l1.9,0.9l0.3,0.9l-0.7,1l-0.7,0.6l-1.6-2l-0.7,0.3l-0.8,0.9l-1.5,0.8l0.1,1.2l-0.6,0.9l-1.9,1.1
					l-0.6,1l2.9,4l-0.1,1.1l-0.6,0.9l-0.2,1l-0.7-1.4l0.1-1.1l-1.1,1.1l-1-0.1l-0.3-1.4l0.7-1.2l-0.1-1.2l-0.9,0.9l-1.6,4.5l1.1,0.9
					l0.5,1l0.5,0.3l0.1-0.2l1.2,0.8v1.4l-0.5,1.1l-2.7,4l-0.8,0.7l-1,2.7l0.1,1.5l-1.1,0.2l0.3,1l0.5,0.6l-1.1,0.6l-2.3,2.9v0.1
					l-1.9,3.1l-0.9,0.6l-4,0.1l0.2,1l1.1,0.9l-0.1,2.6l-0.7,0.6l-0.5,1l-0.2,1.2l-0.6,0.9l-0.1,2.7l-0.1,0.2l-0.7,1v1.4l0.5,0.9
					l-0.2,1.4l-1,0.9l-2.2,0.8l-0.6,1.2l-1.6,1.7l-0.2,2.5l-0.5,1l-1.9,0.3l-1,0.8l-1.1,0.2l-1.7,1.2l-1,0.3l-0.2,1.1l-2.8,2.2
					l-0.6,2.2v1.5l-0.6,1.1l-0.2,1.1l-0.9,0.6l-0.5,2.3l-1.7,0.1l-1.4-0.3l-1,0.8l-0.7,3.5l0.2,0.8h2.7v0.6l-3.4,5.1l-0.2-0.1
					l-0.3,1.5l-0.6,0.8l-0.2,1.1l-0.7,0.7l-0.9,3.4l-1.5,1.7l-0.3,1.2l-1.4,1.8l-0.5,1l-0.7,0.7l-0.2,1.6l-0.9,0.5l-0.8,0.7l-1,0.6
					l-0.6,0.9l-1,0.6v1l0.7,0.9l-0.5,0.3h-1.4l-0.6,0.9l-0.2,2.6l-0.2,0.7h-2.7l-0.9-0.5l-1-0.2l-0.3,1.1l-1.2,0.1l-4.3,7.7
					l-0.1,0.5l-1.5-0.1l-0.9,0.6l-1.4,1.7l-0.5,1.1l-0.2,2.7l-0.7,0.8l-0.2,1.1l1.1,1.7l-0.2,1.2l-1.1,1.7l-2.3,0.1l-0.2,1.1v1.4
					l-1.5,0.8v1.7l-0.1-0.1l-0.3,0.2l-0.2,1.1v1.4l0.3,1l1.4,0.1l1,1.5l-1.6,1.9l-1,1.9l-0.2,1l-1.4,2.3l-0.7,2.5l-0.9,1.4l-1.8,5.2
					l0.2,5.3l-0.2,1l0.1,1l1.2,0.6l-0.1,1.1l-1,0.5l-1.5,1.1l0.3,1.5l0.8,0.5l1.1,0.2l0.1,1.4l-0.7,0.9v2.7l0.9,0.7l1.5,1.9l1,0.8
					l-0.9,0.6l-0.7,1.1l-1.2,0.1l-0.3-1l-0.7-0.6l-1,0.6l-1.6,1.9l-1,0.6l-0.2,6.5l0.6,1.1l1.2,0.5l4-0.2l1,0.5v1.4l-0.6,1l-0.3,1.2
					l-0.6,0.8v1.5l-0.6,1l0.2,1.5l1.1,0.6h1.1l-1.5,2.9l-0.1,1.2l1.1,0.2v1.1l-0.7,2.3l0.1,1.4l0.6,1.1l0.9,0.7l1-0.9l0.5,0.6
					l0.2,2.5l-0.7,1.1l-0.9,3.5l-2.6,1.1l-1-0.1l-2.2,4.9l-0.1,3.6l0.3,1h2.7l1.1,0.5l0.2,1.1l-0.7-0.7l-5.1-0.9l-2.7,4.8l0.5,0.9
					l0.7,0.1l-0.5,1.4l-0.9,0.7l-0.2,1.2l1.9,1.1l0.8,0.2l1.1-0.3l-1.5,2.3l-2.4,0.9l-0.6,0.9l0.2,1.2l0.6,1.1l-1.8,1.7l-0.3,1.1
					l-0.6,1l-1.7-0.5l-0.5,0.9l-0.6,2.4l0.1,2.7l-3.5,6.5l-0.3,2.5l-1,1.8l0.8-1l1.1-0.5l1-0.1l0.5,5.7l0.8,0.6l1,0.5l-0.6,3.7
					l-2.3,1h-0.2l-2.5,0.8l-2.3,2l-2.3,1l-0.2,2.5l0.2,0.3l0.2,2.6l0.6,0.6h1.4l-0.1,4.2l0.6,1.7l1.5,1.8l0.2,0.6l1.4-0.5l1.7-1.4
					l0.2,1.1l-0.2,1.2l3.3,1.9l0.7,0.2l1.2,1.1l2.3,1.1l2.8,2.9l1,0.6l3.7,3.5l0.1,0.3l2.4,2.3l1.7,2.6l1.1-0.2l1.6-1.5l1-0.6
					l-0.7,1.5l-0.6,0.8v0.9l2.3,0.6l-1.1,1l-1.4-0.1l-0.7-1l-0.6-0.3l0.6,1.4l0.8,1l0.3,1.1l-0.3,6.8l-0.3,1l0.3,1.1l1.2,1.4
					l0.6,2.9l2.2,4.4v1.4h0.5l0.2-1.1l0.5-0.9l1.4-0.1l1.5,3.6l-0.2,1.1l-1.4,0.2l-1-0.6l-0.6-0.9l-0.2,0.6l0.1,1.2l0.6,1.6l0.1,1.2
					l1.2,2.4v1l6.3,14.8l0.1,1.2l1,2.4l1,1.2l3.4,7.4l3.2,4l-1.5,1.8l-2.7-2.7l1.8,4.3l-2.8,2.7l-0.2,2.9l-0.3,1.1l0.3,1.2l1.9,1.8
					l0.6,1v1.4l0.6,0.7l-0.1,1.4l-0.8,0.6l0.6,0.8l1.1,0.6l0.9,2.4l1.9,1.8l0.5,1l0.9,1.2l0.8,0.6l0.7,0.8l0.5,1l2.2,2.7l0.6,1.2
					l-1.9,0.3l-0.3,0.5v0.5l1.1,0.2l2.3-0.1l0.5,0.1l2.4,2.5l1,0.6l1.6,1.8l0.5,1l8.6,6.8l1.2,0.6l1.9,1.8l3.9,1.1l0.2-0.5
					l-0.6-10.2l0.6-2l0.6-0.8l1.1,0.2v1.4l-0.6,0.8l-0.1,2.7l-0.3,0.9l0.6,1.2l0.1,6.5l2,0.2l1.4,1.4l-0.1,1.2l-0.6,0.2l1.2,1.7
					l3.5,2.6l0.7,0.9l1,0.5l0.5,0.1h-0.1l0.1,0.3l2.2,0.9l0.8,0.9l1,0.7l2,0.7l0.8,0.7l1.1,0.6l0.7,0.7l1.1,0.6l0.8,0.7l6.8,3.6
					l0.8,1l1.1,0.3l7.7,6.1l0.7,0.9l1.4,3.9l-0.2,0.6l3.9,2.6l4.1,5.2l0.3,1.1v3.4l1.2,2l0.6,2.4l-0.1,1.2l-0.3,1l0.1,1.1l2.8,2.4
					l0.6,0.9l0.9,0.7l0.6,0.9l0.7,2.5l2.3,2.4l-0.6,1.2v1.4l0.2,1.2l0.8,0.9l1.1,3.5l0.1,4l0.7,2.3v1.4l0.5,0.9l0.3,1.5l0.9,0.8
					l0.6,0.9l0.2,1.2l1,1l0.2,2.5l0.6,0.9l-0.1,1.4l-0.6,0.9l-3.6,1l0.2,1.1l1.2,0.2l0.3,0.9l-0.1,0.5l0.2,1.1l0.5,0.9l-0.5,0.9
					l-0.6,0.7l-1.8,1.1l-0.2,1.1l0.7,0.8l-2.7,2.5v2.6l1.1,0.6v1.4l0.9,0.8l-0.2,1.1l2.7,2.4l0.2,1l0.9,0.9l0.6,0.9l0.3,1.8
					l-0.6,2.2l0.1,4.2l-0.8,1.9l0.6,0.8l1.2,0.2l0.7,2.3l0.7,1.1l2.7,0.2l1.1-1.7l0.8-0.6l0.2-1.1l-0.6-2.3l0.5-1l1-0.5l1.4-1.5
					l0.9-0.5h1.4l0.3,1l2.9,2l0.3,0.1l1.6-0.1l1.1,0.2l0.5,0.9l1.1,0.2l1,0.6l1.4,0.5l1.4,0.1l2.7,2.7l0.1,1.2l1.4,0.5l0.7,0.6
					l0.5,0.9l0.1,1.2l1.9,1.8h1.4l0.9-0.6l-0.2-1.1l-0.7-0.6l-0.2-1.1l0.1-1.2l-0.3-1l-3.5-5.3v-5.2l0.3-1l-0.5-1l0.3-2.2l0.7-0.2
					l0.1-1.1l2.4-0.3l1.1-0.5l0.5-0.9l1-0.2l0.9-0.7l0.3-1l0.1-1.2l0.6-0.7l1.2-0.1l0.2-2.4l2.6-1.7l0.2-1l-1.4-1.8l-0.1-6.6
					l-0.8-1.1v-1.4l1.9-3.2l0.7-0.8v-1.1l-1-0.5l-1.5-1.5l-0.5-1.1l-0.2-3.4l0.2-0.5h0.6l0.3-0.5l0.5-0.3l0.2-0.5l-0.6-1v-2.6
					l-0.6-0.9l0.2-0.5l0.3-0.5l0.2-0.5l0.1-0.6l-0.1-0.6v-1.4l-0.2-0.7l-0.3-0.5v-0.8l-0.5-0.6l-0.2-0.6l0.1-1.1l1-0.8l0.2-0.5
					l0.1-0.5v-1.2l-0.2-0.6v-0.5l0.1-0.3l-0.6-0.7l0.6-2.3l0.7-0.8l0.3-1l-0.7-0.8l-0.8-11.7l-0.9-1.1l-0.2-3.9l0.5-1v-2.5l2-6.5
					l1.8-1.8l0.3-3.5l0.6-0.9l2.5-7.1l0.6-0.8l0.3-1l1.4-1.8l0.2-1.2l0.7-0.9l0.2-2.5l0.6-0.8l0.3-2.5l0.9-1.1l-0.1-1.5l1.5-2.9
					v-2.7l0.6-0.6v-1.4l2-4.8v-1.8l0.9-0.6v-1.4l0.5-1.1l0.1-1.2l0.6-0.9l0.2-1.1l0.6-0.9l1.1-0.6l0.6-0.9l2.5-2.3l1.4-2v-1l0.6-1
					l0.1-3.7l0.1-0.5l-0.1-1.2l0.6-1.1l0.1-1.2l0.7-0.8l0.2-1.1l0.8-0.9l0.6-2.3l1.1-1.8l0.8-0.7l2.8-1.2l0.8-0.7l1.2-0.1l0.7-0.9
					l0.2-1.1l1.9-0.9l1.5-1.2l0.9-0.5l0.6-0.8l1.2-0.1l0.7-0.7l1.4-0.2l1-0.5l0.7-0.6l1.5-0.5l1.5-0.9l2.7-3.2l1.1-0.5l0.8-0.6
					l0.6-0.8l1.8-1.5l0.6-0.9l0.8-0.7l1.9-0.8l1.5-1.4l0.9-5.7l1-1l1.1-0.2l1.5-1.4l0.3-1.1l-0.8-1.9l0.2-1.2l-0.7-0.8l-0.9-0.5
					l-0.5-0.9l0.6-0.9h1.4l-0.2-0.9l-1.2-1.4l-0.5-0.9l0.2-1.1l0.6-0.8l4.1-3.4l2.4-0.3l1-0.3l2.3,0.6l0.1-2.2l1.7-1.8l1-0.2
					l0.8-0.7l0.5-2.3l1.5-3.1l1.5-1.5l2.4-5.2l0.2-2.3l0.5-0.2l0.6-1.1l0.8-0.7l1.2-0.1l0.3-1l2.3-2.4v-1.4l0.3-1.1l0.6-0.6l0.9-3.6
					l0.7-1.1l0.7-2l0.7-0.8l0.8-0.6l0.2-1.1l0.8-1.1l0.6-4l0.7-1l1-3.5l1.4-2v-1.4l0.6-0.9v-1.4l1-0.6l0.6-0.8l2.7-0.1l0.9-0.5
					l1.5-2.9l0.9-0.7l2.6-0.1l0.6-2l-2.2-2.3l-0.1-3.9l1-1l0.2-2.6l-0.2-1.2l-1.4-2.7l-0.2-5.6l2-1.5l-0.1-1l-0.7-0.7l0.8-0.3l0.6,1
					l1,0.2l1-0.8l0.6-0.9l-0.3-1l-0.6-0.8l1.2-4.4l0.1-1.4l0.3-1l0.7-0.9l0.2-2.8l0.8-0.8l0.1-1.1l0.5-1l1-0.9l0.6-0.9l0.8-2.3
					l0.9-0.7l1.1-0.2h1.4l1.1-0.7l0.8-4l-0.1-3.9l1.2-2.7l1.4-9l1-0.6v-1.4l2.6-6.5l0.2-2.6l0.3-1v-1.4l0.6-1l-1.1-0.7l-0.2-0.3
					l1.2-0.1l1-0.5l0.7-0.8l0.3-1.1l0.1-2.6l-1.1-1.8v-2.7l-0.5-1.1l-0.3-0.2l0.2-1.5l0.6-1l0.1-2.6l0.9-2.3l0.1-1.4l1.1-1.7
					l0.2-1.1l1-0.9l0.6-2.2l0.1-2.8l0.6-1.2l0.1-9l0.9-1.1l0.3-2.4l1-0.5l0.7-0.8l-0.6-0.8l-0.1-0.9l0.7-0.7l0.6-4.9l0.5-0.9
					l0.2-1.1l0.6-0.8l-0.6-1.8l-0.6-0.5l0.1-1.2l0.5-1v-1.2l1.1-0.8l2.5-3.9l1-4.5l-0.3-1v-7.4l0.9-2.4l1.8-2.5l0.2-1.2l1.4-2.8
					l0.2-1.1l0.5-1v-1.4l1.4-3.1l0.2-2.4l0.5-0.9l0.1-4l0.3-1.1l0.5-5.2l0.3-1l-0.1-4l-1-2.2l0.7-2.2l0.8-0.8l0.5-1.1l0.7-0.6h1
					l0.6,0.8l1.4-0.1l0.6-2.2h-1.1l0.8-1.8l1.1-0.3l-0.5-0.9l0.2-1.1l1,0.2l0.7-2.4v-1.4l-5.1-5.3l-0.3-2.3l-0.5-0.9l-0.1-8.4l1-1.9
					l2.5-2.4l1.1-0.6l2.3-2.6l1-0.3l1-1.7l0.2,0.2l0.2-0.3l0.3-3.6l0.6-0.6l-1.7-3.1v-4l0.7-2.3l2.7-3.7l0.9-0.6l0.7-0.8l1-0.2
					l2.3-2l1.1-0.2l0.9-0.7l2.2-3.9l2.5-0.2l0.2-0.1l0.6-1.4l1-0.5l0.8-1.9l0.8-0.6l0.1-4l1.9-2.7l1.6-1.5l0.7-1l1-0.5l0.5-0.9
					l-0.1-3.7l-0.6-0.9l0.1-2.6l1.8-3.4l0.2-1l1.1-1.8l0.3-7.7l0.3-1.1l0.6-0.8v-1.5l0.7-2.5l1.2-1.7l0.3-1.2l1.9-1.1l0.7-0.8
					l0.9-1.8l0.1-1.2l3.2-3.1l3.2-1.4h1.4l0.3-0.2l-1-0.6l-0.7-0.7l-0.6-0.9v-1.4l-1.8-1l-0.3-3.5l1.2-0.8l0.6-0.9l2.3-0.5l1.9-1.2
					l1.1-0.2l0.3-1.1l-0.1-1l-0.5-1.2l-0.1-1.2l-0.6-0.8l-0.2-2.5l0.6-0.8l-0.7-1l0.5-1h1.4l-0.2-1l-0.7-0.6l-0.2-0.3l1-0.5
					l-0.9,0.2l-1.2-0.5l-0.1-0.9l-1.7-1.5l0.3-1.1l1.2-0.1l1.1,0.6l0.2,1.2l1.2-0.1l1.1-0.6l-2.6-2.6l-2.2-0.7l-0.3-0.6l-0.3-0.1
					l-1.1-1.6l-0.1-0.9l-2.6-6.5l-0.1-2.7l-0.6-0.8l0.2-0.5v-1.5l-0.3-1.1l0.3-7.3l-2-2.3l-0.6-1v-1.1l-1-1.1l-0.5-2.4l0.1-1.2
					l-0.7-0.7l0.3-9.9l0.5-1.5v-1.4l0.9-1.9l-0.2-2.6l0.7-2.2l0.1-1.2l1.7-3.6l0.2-1.2l0.9-1.5l1-0.6l0.7-2l0.7-0.8l1-0.3l2.7-3.2
					l0.9-0.5l2.3-2.6l0.2-2.5l0.3-1.1l1.9-1.1l1-0.2l1.1-1.5l0.8-0.7l0.9-0.5l1.8-2.5l0.2-1.4l1.2-0.7l1.2-0.2l0.9-0.3l0.8-0.8
					l1.1-0.2l0.9-0.6l1.4-0.1l2.7-1.2l0.6-1.1l1.2-0.1l0.6-0.8l1.9-0.9l0.6-0.9l1.4-0.1l0.5-1v-1l-1.4-1.5l-1,0.1l-0.8,0.7l-0.8-1.5
					l-1-0.3l-0.6-0.7l-1-0.2h-1.2l-0.6,0.6l-1.2,0.8l-2.8-0.2l-3.5-2.8l-0.2-1v-4l-0.5-0.6l1-0.7l-0.2-0.5l-2.9-2.9l-0.9-2.2
					l1.1-3.2l1-0.7l0.2-1l-0.5-0.9l-0.7-0.7l-0.5-0.6l0.6-0.9l0.9-0.6v-1.4l-1.2-0.1l-1.1,0.2l-0.7,0.7l-2.4,0.8h-1.4l-4.2-0.9
					l-1,0.5l-1-0.5l-3.1-0.1l-2-0.6l-1,0.6l-0.9,0.9h-1.1l-0.7-0.9l0.2-1.1l0.6-0.9l0.5-0.5h-1.4l-1.1,0.5h-1.4l-0.6-0.8l0.3-2.4
					l-1.2,0.1l-1.7,1l-1.5-1.4l-1.4-0.1l-0.6-0.5v-1.5l-1.1-0.3l-0.6,1l-1,0.2l-0.2-1h-0.9l0.3,1l1,1.5l-1.2,1.6l-1.9,1.5l-0.9,0.1
					l1.6-1.5l-0.6-1v-2.3l-1-0.1l-1-0.6l-1.2-0.2l-1.5-1.5h-2.7l-0.8-0.6l0.2-1l-0.6-1l-1.1-0.2l-0.9-0.7l-1.1-0.3l-1.1-0.8
					l-0.3-0.9l0.5-1l2-1l-0.2-0.6l-0.8-0.7l0.7-0.8l1-0.6l0.9-0.8l-0.2-0.8l-3.2,2.7l-4.4,0.2l-3.5-3.6l-0.2-0.9l0.9-0.9l-0.5-0.9
					h-1.4l-1-0.5l-1.5-1.5l0.3-2.7l-0.2-1.2l-0.5-0.9l-0.8-0.7l-2.6-3.6l-2.3-0.7l-1.2-1.6l-1-0.6h-1.4l-1-0.7l-0.7-0.8l-0.9-0.6
					L5736.2,2881.4L5736.2,2881.4z"/>
			</g>
		</g>
	</g>
</g>
<path id="_40041992" fill="#C9C9C9" stroke="#BABABA" d="M390.4,541.5c-4.2-2-5.8,4.1-13.7-1.7c1.7,3.6-4,8.4,4.1,9.2
	c7.3,0.7-0.3,7,1.2,10.1c3.5,6.9-2.8,1.8,19.7,6.6c19.3,4.1,12.5-8,29.9-10.5c24.6-3.5,15.1-14.2,30.1-9c3.7,1.2,5.9-0.7,13.4,8
	c1.5,1.7,4.3,1.9,5.6,3.9c1.5,2.2,2.3,0.2,4.9-0.8c6.1-2.3-0.1-2.4,1.7-5.9c-1.2-2.7-1.9-5.6-5.4-5.4c-6.8,0.1-6.3-4.2-8.6-3.3
	c-8.3,3.4-3.1-3.9,0.6-5.7c3.5-1.8,0.6-2,0.5-4.8c-0.3-9-6.5,2.9-6.9-0.6c-0.9-7,10.4-5.7,4.1-7c-2.6-0.6-1.2-5.2-4.9-4.8
	c-12.7,1.7-9,8.7-16.2,5.2c-6.8-3.3-6.7-1.4-7.9-5.4c-0.8-2.8-3.1-0.7-7.1,0.3c-3.9,1-5.8,3.7-8.7,5.8c-7.5,5.4-10.1,0.8-15.3,2.4
	c-1.4,0.5-4.3,8-10.2,8.4c-5.1,0.3-2.7,0.3-2.6,3.1C398.6,542.8,391.8,542.2,390.4,541.5L390.4,541.5L390.4,541.5z"/>
<text transform="matrix(1 0 0 1 122.1861 3.388920e-05)" font-family="'ArialMT'" font-size="15.4878">  </text>
<text transform="matrix(1 0 0 1 982.6436 233.0401)" font-family="'Athelas-Regular'" font-size="15.4878">Jln</text>
<text transform="matrix(1 0 0 1 1011.0469 233.0401)" font-family="'ArialMT'" font-size="15.4878"> </text>
<text transform="matrix(1 0 0 1 958.5801 140.5704)" font-family="'Athelas-Regular'" font-size="15.4878">Hilngjing</text>
<text transform="matrix(1 0 0 1 908.6055 272.5547)" font-family="'Athelas-Regular'" font-size="15.4878">Lionng</text>
<text transform="matrix(1 0 0 1 463.7295 394.668)" font-family="'Athelas-Regular'" font-size="15.4878">Qnghi</text>
<text transform="matrix(1 0 0 1 608.9854 425.043)" font-family="'Athelas-Regular'" font-size="15.4878">Gns</text>
<text transform="matrix(1 0 0 1 673.627 445.9912)" font-family="'ArialMT'" font-size="15.4878">Shaanxi</text>
<text transform="matrix(1 0 0 1 672.3457 462.3116)" font-family="'ArialMT'" font-size="15.4878">(Shnx)</text>
<text transform="matrix(1 0 0 1 739.7188 379.5709)" font-family="'Athelas-Regular'" font-size="15.4878">Shnx</text>
<text transform="matrix(1 0 0 1 803.4932 332.6866)" font-family="'Athelas-Regular'" font-size="15.4878">Hbi</text>
<text transform="matrix(1 0 0 1 565.0274 525.4816)" font-family="'Athelas-Regular'" font-size="15.4878">Schun</text>
<text transform="matrix(1 0 0 1 750.3447 504.4844)" font-family="'Athelas-Regular'" font-size="15.4878">Hbi</text>
<text transform="matrix(1 0 0 1 763.7715 450.3516)" font-family="'Athelas-Regular'" font-size="15.4878">Hnn</text>
<text transform="matrix(1 0 0 1 829.6016 402.5069)" font-family="'Athelas-Regular'" font-size="15.4878">Shndng</text>
<text transform="matrix(1 0 0 1 846.5791 501.4484)" font-family="'Athelas-Regular'" font-size="15.4878">nhu</text>
<text transform="matrix(1 0 0 1 876.9795 450.5831)" font-family="'Athelas-Regular'" font-size="15.4878">Jings</text>
<text transform="matrix(1 0 0 1 532.8247 652.6749)" font-family="'Athelas-Regular'" font-size="15.4878">Ynnn</text>
<text transform="matrix(1 0 0 1 638.5967 588.6074)" font-family="'Athelas-Regular'" font-size="15.4878">Gizhu</text>
<text transform="matrix(1 0 0 1 740.0723 589.1661)" font-family="'Athelas-Regular'" font-size="15.4878">Hnn</text>
<text transform="matrix(1 0 0 1 812.373 587.4844)" font-family="'Athelas-Regular'" font-size="15.4878">Jingx</text>
<text transform="matrix(1 0 0 1 886.7197 540.1075)" font-family="'Athelas-Regular'" font-size="15.4878">Zhjing</text>
<text transform="matrix(1 0 0 1 697.0381 769.4844)" font-family="'Athelas-Regular'" font-size="15.4878">Hinn</text>
<text transform="matrix(1 0 0 1 775.4863 660.9268)" font-family="'Athelas-Regular'" font-size="15.4878">Gungdng</text>
<text transform="matrix(1 0 0 1 862.2646 614.002)" font-family="'Athelas-Regular'" font-size="15.4878">Fjin</text>
<text transform="matrix(1 0 0 1 924.9678 658.3008)" font-family="'Athelas-Regular'" font-size="15.4878">Tiwn</text>
<text transform="matrix(1 0 0 1 682.8184 660.337)" font-family="'Athelas-Regular'" font-size="15.4878">Gungx</text>
<text transform="matrix(1 0 0 1 266.0049 455.8087)" font-family="'Athelas-Regular'" font-size="15.4878">Tibet (Xzng)</text>
<text transform="matrix(1 0 0 1 296.1377 238.0064)" font-family="'Athelas-Regular'" font-size="15.4878">Xnjing</text>
<text transform="matrix(1 0 0 1 608.3687 288.9072)" font-family="'Athelas-Regular'" font-size="15.4878">Inner Mongolia</text>
<text transform="matrix(1 0 0 1 615.2695 305.9435)" font-family="'Athelas-Regular'" font-size="15.4878">(Nei Mongol)</text>
<text transform="matrix(1 0 0 1 634.1377 370.2715)" font-family="'Athelas-Regular'" font-size="15.4878">Nngxi</text>
<text transform="matrix(1 0 0 1 653.251 527.96)" font-family="'Athelas-Regular'" font-size="15.4878">Chngqng</text>
<text transform="matrix(1 0 0 1 945.5938 494.0615)" font-family="'Athelas-Regular'" font-size="15.4878">Shnghi</text>
<text transform="matrix(1 0 0 1 857.792 328.3418)" font-family="'Athelas-Regular'" font-size="15.4878">Tinjn</text>
<text transform="matrix(1 0 0 1 835.7295 306.6588)" font-family="'Athelas-Regular'" font-size="15.4878">Bijng</text>
<text transform="matrix(1 0 0 1 883.0859 306.6588)" font-family="'ArialMT'" font-size="15.4878">  </text>
<text transform="matrix(1 0 0 1 931.8564 675.296)" font-family="'Athelas-Regular'" font-size="13.9391">(Claimed. Governed by</text>
<text transform="matrix(1 0 0 1 939.6016 690.7578)" font-family="'Athelas-Regular'" font-size="13.9391">the Republic of China.)</text>
<text transform="matrix(1 0 0 1 312.3433 557.5616)" font-family="'Athelas-Regular'" font-size="13.9391">(Claimed to be part of Xizang.</text>
<text transform="matrix(1 0 0 1 312.3433 573.0499)" font-family="'Athelas-Regular'" font-size="13.9391">Governed by the Republic of India.)</text>
<text transform="matrix(1 0 0 1 817.2471 693.8555)" font-family="'Athelas-Regular'" font-size="13.9391">Hong Kong</text>
<text transform="matrix(1 0 0 1 800.21 709.3428)" font-family="'Athelas-Regular'" font-size="13.9391">Macau</text>
<path id="_40009104" inkscape:connector-curvature="0" fill="#FDDDB9" stroke="#BABABA" d="M183.7,371.1c-4-0.1,2.4-0.1-3.6-1.2
	c0.5,2.3,0.6,5.2-0.5,9.5c-0.2,1.1-0.8,2.2-1.6,3.1c0,0-1.1,4.8,5.1,1c1.2-0.8,1.2-6,0.1-6.7c-1.7-1.1,0.3,0,0.5-2.4
	C183.7,373.8,186.7,371.2,183.7,371.1L183.7,371.1L183.7,371.1z"/>
<path id="_40009704" inkscape:connector-curvature="0" fill="#FDDDB9" stroke="#BABABA" d="M163.9,386.5c2.4-1.2-0.6-0.3-0.8-2.6
	c-1,0.9-2.6,0.1-0.3,5.1C164.2,388.4,163.1,386.9,163.9,386.5L163.9,386.5z"/>
<path id="_40041272" inkscape:connector-curvature="0" fill="#FDDDB9" stroke="#BABABA" d="M165.9,407.2c-1.6,0-0.7,0.3-2.7,0.9
	c1,1.8,1.2,11.3,5.3,6.5c0.5-0.6,1.1-0.3,1.8,0.2l0.6-2c-0.3-1.8-0.7,0.8-1.1-3.5c-0.1-1.5-0.9-3.3-1.7-3.1
	C166.7,406.5,168.5,407.2,165.9,407.2L165.9,407.2z"/>
<circle fill="#FBFFD5" stroke="#BABABA" cx="181.1" cy="729.5" r="8.2"/>
<circle fill="#A3D9F7" stroke="#BABABA" cx="180.8" cy="706.3" r="8.2"/>
<circle fill="#CC9FC5" stroke="#BABABA" cx="180.7" cy="683.1" r="8.2"/>
<circle fill="#FDDDB9" stroke="#BABABA" cx="180.7" cy="660.3" r="8.2"/>
<circle fill="#F8E6EE" stroke="#BABABA" cx="180.7" cy="636.4" r="8.2"/>
<circle fill="#E5EBFA" stroke="#BABABA" cx="180.7" cy="612.8" r="8.2"/>
<circle fill="#D7F2D8" stroke="#BABABA" cx="180.7" cy="590" r="8.2"/>
<rect x="196.3" y="584.3" fill="none" width="92.7" height="18"/>
<text transform="matrix(1 0 0 1 196.3335 594.833)" font-family="'Athelas-Bold'" font-size="15">North China</text>
<rect x="196.3" y="607.3" fill="none" width="121.7" height="18"/>
<text transform="matrix(1 0 0 1 196.3335 617.833)" font-family="'Athelas-Bold'" font-size="15">NorthEast China</text>
<rect x="196.3" y="630.3" fill="none" width="121.7" height="18"/>
<text transform="matrix(1 0 0 1 196.3335 640.833)" font-family="'Athelas-Bold'" font-size="15">East China</text>
<rect x="196.3" y="654.3" fill="none" width="121.7" height="18"/>
<text transform="matrix(1 0 0 1 196.3335 664.833)" font-family="'Athelas-Bold'" font-size="15">SouthWest China</text>
<rect x="196.3" y="677.3" fill="none" width="121.7" height="18"/>
<text transform="matrix(1 0 0 1 196.3335 687.833)" font-family="'Athelas-Bold'" font-size="15">NorthWest China</text>
<rect x="196.3" y="700.3" fill="none" width="121.7" height="18"/>
<text transform="matrix(1 0 0 1 196.3335 710.833)" font-family="'Athelas-Bold'" font-size="15">Central China</text>
<rect x="196.3" y="723.3" fill="none" width="121.7" height="18"/>
<text transform="matrix(1 0 0 1 196.3335 733.833)" font-family="'Athelas-Bold'" font-size="15">South China</text>
</svg>
